<svg xmlns:xlink="http://www.w3.org/1999/xlink" xmlns="http://www.w3.org/2000/svg" viewBox="0 0 250 250" class="Integration__StyledIcon-sc-2xefks-1 jobkWb" width="250"  height="250" ><circle cx="125" cy="125" r="125" fill="#F6F9FE"></circle><path d="M98.242 116.24a12.639 12.639 0 00.458 3.713 22.27 22.27 0 001.33 3 1.813 1.813 0 01.292.96 1.66 1.66 0 01-.789 1.252l-2.62 1.751a1.984 1.984 0 01-1.081.376 1.914 1.914 0 01-1.247-.585 12.923 12.923 0 01-1.5-1.961c-.417-.709-.831-1.5-1.289-2.46a15.341 15.341 0 01-12.222 5.756 11.364 11.364 0 01-8.314-3 11.8 11.8 0 01.708-16.6c2.536-2.168 5.9-3.254 10.184-3.254a32.689 32.689 0 014.406.333c1.536.21 3.117.544 4.781.919v-3.045c0-3.169-.664-5.381-1.953-6.675-1.331-1.294-3.575-1.92-6.775-1.92a18.736 18.736 0 00-4.489.543 32.881 32.881 0 00-4.489 1.418 12.116 12.116 0 01-1.456.543 2.574 2.574 0 01-.664.124c-.583 0-.872-.416-.872-1.293V94.09a2.64 2.64 0 01.292-1.459 3.13 3.13 0 011.164-.877 23.965 23.965 0 015.239-1.878 25.069 25.069 0 016.484-.792c4.947 0 8.564 1.125 10.892 3.379 2.286 2.253 3.45 5.673 3.45 10.26v13.515h.078zm-16.878 6.338a13.456 13.456 0 004.281-.75 9.241 9.241 0 003.95-2.67 6.639 6.639 0 001.414-2.669 15.007 15.007 0 00.417-3.63v-1.752a34.186 34.186 0 00-3.826-.707 31.4 31.4 0 00-3.908-.251c-2.786 0-4.822.543-6.195 1.668a6.872 6.872 0 00-.5 9.218 5.744 5.744 0 004.367 1.543zm33.382 4.507a2.32 2.32 0 01-1.581-.416 3.4 3.4 0 01-.872-1.628l-9.77-32.241a7.3 7.3 0 01-.375-1.669.913.913 0 011-1.043h4.075a2.306 2.306 0 011.623.416 3.415 3.415 0 01.83 1.627l6.984 27.614 6.484-27.614a2.957 2.957 0 01.788-1.627 2.851 2.851 0 011.664-.416h3.325a2.5 2.5 0 011.664.416 2.8 2.8 0 01.789 1.627l6.567 27.947 7.192-27.947a3.62 3.62 0 01.831-1.627 2.7 2.7 0 011.622-.416h3.867a.926.926 0 011.039 1.043 4.128 4.128 0 01-.084.667 5.885 5.885 0 01-.291 1.043L142.1 125.083a3.227 3.227 0 01-.873 1.627 2.641 2.641 0 01-1.58.416h-3.575a2.5 2.5 0 01-1.664-.416 2.952 2.952 0 01-.789-1.669l-6.442-26.9L120.774 125a3.3 3.3 0 01-.789 1.669 2.574 2.574 0 01-1.664.416h-3.575zm53.415 1.125a27.488 27.488 0 01-6.4-.75 18.812 18.812 0 01-4.781-1.668 3.017 3.017 0 01-1.289-1.167 2.954 2.954 0 01-.25-1.167v-2.127c0-.877.334-1.293.956-1.293a2.336 2.336 0 01.747.124c.25.083.623.251 1.039.417a22.534 22.534 0 004.573 1.459 24.934 24.934 0 004.947.5 11.184 11.184 0 006.07-1.376 4.5 4.5 0 002.161-3.964 4.081 4.081 0 00-1.122-2.92 10.423 10.423 0 00-4.2-2.168l-6.028-1.879a12.671 12.671 0 01-6.65-4.255 9.953 9.953 0 01-2.078-6.049 9.326 9.326 0 011.124-4.627 10.751 10.751 0 012.992-3.42 13.148 13.148 0 014.323-2.168 18.192 18.192 0 015.239-.712 21 21 0 012.786.166c.955.124 1.828.292 2.7.458.831.209 1.623.416 2.37.667a9.118 9.118 0 011.747.75 3.6 3.6 0 011.247 1.043 2.248 2.248 0 01.375 1.376v1.961c0 .877-.333 1.335-.955 1.335a4.319 4.319 0 01-1.581-.5 18.968 18.968 0 00-7.981-1.627 10.707 10.707 0 00-5.528 1.167 4.029 4.029 0 00-1.952 3.712 3.952 3.952 0 001.247 2.962 12.393 12.393 0 004.572 2.3l5.9 1.878c2.992.96 5.156 2.3 6.442 4.005a9.476 9.476 0 011.911 5.839 10.77 10.77 0 01-1.08 4.837 11.228 11.228 0 01-3.029 3.671 13.408 13.408 0 01-4.614 2.336 19.739 19.739 0 01-5.95.874z" fill-rule="evenodd" fill="#252F3E"></path><path data-name="Shape 1 copy" d="M176.017 148.482C162.342 158.619 142.472 164 125.385 164a91.419 91.419 0 01-61.813-23.651c-1.289-1.167-.125-2.753 1.414-1.834a124.342 124.342 0 0061.855 16.476 123.019 123.019 0 0047.179-9.678c2.289-1.042 4.242 1.501 1.997 3.169zm5.695-6.506c-1.747-2.253-11.556-1.084-16-.543-1.33.165-1.538-1-.333-1.878 7.814-5.506 20.659-3.922 22.156-2.086 1.5 1.879-.416 14.767-7.73 20.94-1.123.96-2.2.458-1.706-.792 1.66-4.129 5.36-13.432 3.613-15.641z" fill="#FF9900" fill-rule="evenodd"></path></svg>