<svg xmlns:xlink="http://www.w3.org/1999/xlink" xmlns="http://www.w3.org/2000/svg" viewBox="0 0 250 250" class="Integration__StyledIcon-sc-2xefks-1 jobkWb" width="250"  height="250" ><circle cx="125" cy="125" r="125" fill="#F6F9FE"></circle><path data-name="Shape 15 copy 4" d="M68.15 140.51a11.3 11.3 0 1022.59 0v-11.32h-11.3a11.31 11.31 0 00-11.29 11.32zm30.11 0v30.18a11.3 11.3 0 1022.59.01v-30.18a11.3 11.3 0 10-22.59-.01" fill-rule="evenodd" fill="#DF1F59"></path><path data-name="Shape 15 copy 3" d="M139.67 182.01a11.315 11.315 0 000-22.63h-11.29v11.32a11.3 11.3 0 0011.29 11.31zm0-30.18h30.12a11.32 11.32 0 000-22.64h-30.11a11.32 11.32 0 00-.01 22.64z" fill="#EBB132" fill-rule="evenodd"></path><path data-name="Shape 15 copy 2" d="M181.08 110.33a11.3 11.3 0 10-22.59 0v11.32h11.3a11.3 11.3 0 0011.29-11.32zm-30.11 0V80.15a11.3 11.3 0 10-22.59 0v30.18a11.3 11.3 0 1022.59 0z" fill="#2BB57D" fill-rule="evenodd"></path><path data-name="Shape 15 copy" d="M109.56 68.83a11.315 11.315 0 000 22.63h11.29V80.15a11.31 11.31 0 00-11.29-11.32m0 30.18H79.44a11.32 11.32 0 000 22.64h30.12a11.32 11.32 0 000-22.64z" fill="#37C4EF" fill-rule="evenodd"></path></svg>