<svg width="645" height="447" viewBox="0 0 645 447" fill="none" xmlns="http://www.w3.org/2000/svg">
<path opacity="0.4" d="M424 447L6 246L248 113L633 286L424 447Z" fill="#101114"/>
<path opacity="0.6" d="M407.333 416.365L56 247.423L259.404 135.635L583 281.043L407.333 416.365Z" fill="#101114"/>
<path opacity="0.9" d="M393.667 370.403L149 252.753L290.649 174.904L516 276.166L393.667 370.403Z" fill="#101114"/>
<path d="M444 84L456 88L455.5 101.5L445 109.5L433 105.5L433.5 91L444 84Z" fill="url(#paint0_linear_243_220)"/>
<path d="M445.5 95L456 88L455.5 101.5L445 109.5L445.5 95Z" fill="url(#paint1_linear_243_220)"/>
<path d="M444 84L456 88L445.5 95L433.5 91L444 84Z" fill="url(#paint2_linear_243_220)"/>
<path d="M131 80.5L91.5 61" stroke="#33363F" stroke-linecap="round" stroke-linejoin="round"/>
<path d="M637 183L450.5 99" stroke="#33363F" stroke-linecap="round"/>
<path d="M11 143.5L9.5 195.5" stroke="#33363F" stroke-linecap="round"/>
<path d="M124 68L136 72L135.5 86.5L124 91.5L112 87.5L112.5 73L124 68Z" fill="url(#paint3_linear_243_220)"/>
<path d="M124.5 77L136 72L135.5 86.5L124 91.5L124.5 77Z" fill="url(#paint4_linear_243_220)"/>
<path d="M124 68L136 72L124.5 77L112.5 73L124 68Z" fill="#33363F"/>
<path d="M10 143L118 83" stroke="#33363F" stroke-linecap="round" stroke-linejoin="round"/>
<path d="M252 10.5L251.5 60.5L148 118L146 169" stroke="#33363F" stroke-linejoin="round"/>
<path d="M523 83L535 89L534.5 102.5L524 110.5L512 104.5L512.5 91L523 83Z" fill="url(#paint5_linear_243_220)"/>
<path d="M524.5 97L535 89L534.5 102.5L524 110.5L524.5 97Z" fill="url(#paint6_linear_243_220)"/>
<path d="M523 83L535 89L524.5 97L512.5 91L523 83Z" fill="#33363F"/>
<path d="M253 0L265 4L264.5 17.5L254 24.5L242 20.5L242.5 7L253 0Z" fill="url(#paint7_linear_243_220)"/>
<path d="M254.5 11L265 4L264.5 17.5L254 24.5L254.5 11Z" fill="url(#paint8_linear_243_220)"/>
<path d="M253 0L265 4L254.5 11L242.5 7L253 0Z" fill="url(#paint9_linear_243_220)"/>
<path d="M260.5 14.5L384 67L381.5 123L451 151.5L518 101.5" stroke="#33363F" stroke-linecap="round" stroke-linejoin="round"/>
<path d="M12 132L24 136L23.5 150.5L12 155.5L0 151.5L0.5 137L12 132Z" fill="url(#paint10_linear_243_220)"/>
<path d="M12.5 141L24 136L23.5 150.5L12 155.5L12.5 141Z" fill="url(#paint11_linear_243_220)"/>
<path d="M12 132L24 136L12.5 141L0.5 137L12 132Z" fill="#33363F"/>
<path fill-rule="evenodd" clip-rule="evenodd" d="M496 272.784C496 278.903 493.189 284.365 488.787 287.949C486.544 289.775 485 290.5 476.213 296.497L353 91C356 90 359.5 89 363.805 87.49C367.5 86.5 370.201 86 373.209 86C375.922 86 378.605 86.5646 381.087 87.658L467.745 125.024C483.701 132.051 496 148.84 496 166.275V272.784Z" fill="url(#paint12_linear_243_220)"/>
<path fill-rule="evenodd" clip-rule="evenodd" d="M367.426 91.4317L460.543 132.44C475.612 139.077 485.339 153.989 485.339 170.455V280.019C485.339 290.815 476.587 299.567 465.792 299.567C463.101 299.567 460.439 299.011 457.973 297.935L364.924 257.327C349.786 250.721 340 235.773 340 219.256V109.321C340 98.5254 348.752 89.7737 359.547 89.7737C362.26 89.7737 364.943 90.3384 367.426 91.4317Z" fill="#33363F"/>
<path d="M424.406 189.991L429.055 185.974C429.77 185.351 430.905 185.832 431.592 187.05C431.594 187.054 431.597 187.059 431.599 187.063L449.68 219.964C450.358 221.218 450.332 222.733 449.621 223.353L430.687 239.35C429.973 239.934 428.839 239.387 428.153 238.131C428.15 238.127 428.148 238.122 428.145 238.117L423.708 229.95C423.029 228.706 423.055 227.234 423.766 226.652L436.765 215.774L424.348 193.289C423.669 192.073 423.694 190.6 424.406 189.991ZM384.506 166.895L388.952 174.576C389.631 175.756 389.607 177.174 388.896 177.747L375.907 187.981L388.336 209.825C389.016 211.032 388.991 212.45 388.281 212.995L383.64 216.527C382.927 217.065 381.793 216.517 381.106 215.308C381.103 215.303 381.101 215.299 381.098 215.295L362.994 183.637C362.314 182.467 362.338 181.092 363.048 180.557L381.962 165.805C382.676 165.23 383.811 165.711 384.499 166.882C384.501 166.886 384.504 166.89 384.506 166.895ZM413.958 171.11L419.866 176.721C420.774 177.587 421.196 179.127 420.81 180.164L401.081 232.003C400.695 232.993 399.643 233.049 398.732 232.13L392.823 226.155C391.916 225.241 391.494 223.714 391.879 222.736L411.599 171.418C411.985 170.388 413.038 170.246 413.951 171.103C413.953 171.105 413.955 171.107 413.958 171.11Z" fill="#262931"/>
<path d="M340 112L485 176V180L340 115.5V112Z" fill="#2B2E37"/>
<ellipse cx="358.4" cy="105.5" rx="4.4" ry="5.5" transform="rotate(-15 358.4 105.5)" fill="#262931"/>
<ellipse cx="371.4" cy="110.5" rx="4.4" ry="5.5" transform="rotate(-15 371.4 110.5)" fill="#262931"/>
<ellipse cx="384.4" cy="116.5" rx="4.4" ry="5.5" transform="rotate(-15 384.4 116.5)" fill="#262931"/>
<g filter="url(#filter0_f_243_220)">
<path fill-rule="evenodd" clip-rule="evenodd" d="M367.142 91.5567C364.749 90.5027 362.162 89.7801 359.547 89.7801C362.358 89.7801 365.137 90.1777 367.709 91.3104L460.826 131.796C476.151 138.545 486.043 153.71 486.043 170.455L485.347 260.418L485.24 170.455C485.24 154.268 475.073 138.804 460.259 132.28L367.142 91.5567Z" fill="#696D77"/>
</g>
<path fill-rule="evenodd" clip-rule="evenodd" d="M374.133 237.946L401.476 309.08C408.481 305.868 425.75 300.365 431.2 291.287C439.752 277.04 433.948 257.986 429.909 250.688C425.871 243.391 417.32 229.751 395.791 227.393L374.133 237.946Z" fill="url(#paint13_linear_243_220)"/>
<path fill-rule="evenodd" clip-rule="evenodd" d="M315.351 159.123L374.133 237.946L395.791 227.393C395.129 205.898 389.358 187.95 378.478 173.549C362.158 151.948 347.667 148.942 337.009 148.57L315.351 159.123Z" fill="url(#paint14_linear_243_220)"/>
<path fill-rule="evenodd" clip-rule="evenodd" d="M315.351 159.123L337.009 148.57C331.626 128.482 323.098 112.223 311.426 99.7905C293.918 81.1425 273.273 79.9636 261.362 85.0086C256.566 87.0399 247.449 90.9929 241.628 94.054L315.351 159.123Z" fill="url(#paint15_linear_243_220)"/>
<path fill-rule="evenodd" clip-rule="evenodd" d="M239.888 124.864C237.937 123.481 229.214 120.045 220.45 122.134C217.253 122.896 214.805 124.588 210.875 126.62C206.944 128.651 204.36 129.753 197.214 133.153L221.887 144.549L239.888 124.864Z" fill="url(#paint16_linear_243_220)"/>
<path fill-rule="evenodd" clip-rule="evenodd" d="M218.23 135.418C215.566 133.53 200.289 127.819 189.511 137.547C178.732 147.276 176.888 167.218 181.99 187.015C187.092 206.811 202.665 221.516 215.017 227.437C227.368 233.357 373.691 303.088 379.286 305.737C384.881 308.386 400.989 316.087 409.541 301.84C418.094 287.594 412.29 268.539 408.251 261.242C404.212 253.945 395.662 240.305 374.133 237.946C373.471 216.452 367.7 198.504 356.82 184.103C340.5 162.502 326.01 159.495 315.351 159.123C309.968 139.036 301.44 122.776 289.768 110.344C272.26 91.6962 251.26 89.1715 239.727 94.8978C228.193 100.624 220.164 112.824 218.23 135.418Z" fill="#33363F"/>
<g filter="url(#filter1_f_243_220)">
<path fill-rule="evenodd" clip-rule="evenodd" d="M239.808 94.8544C251.491 89.0541 272.414 91.4193 289.988 110.138C301.659 122.569 310.188 138.804 315.585 158.83C320.894 159.033 327.149 159.907 334.098 163.382C341.142 166.905 348.879 173.091 357.061 183.921C367.942 198.322 373.725 216.247 374.427 237.676C395.912 240.131 404.174 253.899 408.212 261.197C404.19 253.929 395.482 240.589 374.1 238.246L373.84 238.218L373.832 237.956C373.171 216.511 367.415 198.627 356.58 184.285C348.442 173.514 340.773 167.396 333.828 163.922C326.884 160.449 320.643 159.61 315.341 159.425L315.118 159.417L315.06 159.201C309.687 139.152 301.179 122.939 289.548 110.551C272.106 91.9732 251.193 89.2021 239.808 94.8544Z" fill="#696D77"/>
</g>
<path d="M633.5 183L632.5 237L530.5 313.5V364L568.5 382.25L587.5 391.375" stroke="#33363F" stroke-linecap="round" stroke-linejoin="round"/>
<path d="M18.5 146.5L136 202.5" stroke="#33363F" stroke-linecap="round"/>
<path d="M266 307L278 313L277.5 326.5L267 334.5L255 328.5L255.5 315L266 307Z" fill="url(#paint17_linear_243_220)"/>
<path d="M267.5 321L278 313L277.5 326.5L267 334.5L267.5 321Z" fill="url(#paint18_linear_243_220)"/>
<path d="M266 307L278 313L267.5 321L255.5 315L266 307Z" fill="url(#paint19_linear_243_220)"/>
<path d="M273.5 324L338 356.5L339 310.5" stroke="#33363F" stroke-linecap="round" stroke-linejoin="round"/>
<path d="M341 290L353 296L352.5 309.5L342 317.5L330 312.5L330.5 298L341 290Z" fill="url(#paint20_linear_243_220)"/>
<path d="M342.5 304L353 296L352.5 309.5L342 317.5L342.5 304Z" fill="url(#paint21_linear_243_220)"/>
<path d="M341 290L353 296L342.5 304L330.5 298L341 290Z" fill="#33363F"/>
<path d="M428.5 345.5L382.75 323L359.875 311.75L349.5 306.5" stroke="#33363F" stroke-linecap="round"/>
<path d="M260.5 324.438L232.25 347.469L218.125 358.984" stroke="#33363F" stroke-linecap="round"/>
<path d="M382 56L394 60L393.5 73.5L383 81.5L371 77.5L371.5 63L382 56Z" fill="url(#paint22_linear_243_220)"/>
<path d="M383.5 67L394 60L393.5 73.5L383 81.5L383.5 67Z" fill="url(#paint23_linear_243_220)"/>
<path d="M382 56L394 60L383.5 67L371.5 63L382 56Z" fill="#33363F"/>
<path fill-rule="evenodd" clip-rule="evenodd" d="M249.96 246.892C249.96 250.371 248.362 253.476 245.859 255.514C244.584 256.552 211.444 281.74 206.437 285.079L133.3 169.974C137.716 166.567 171.173 148.267 173.67 147.076C175.117 146.386 176.737 146 178.448 146C179.99 146 181.515 146.321 182.927 146.943L235.034 169.891C244.105 173.886 249.96 182.862 249.96 192.774V246.892Z" fill="url(#paint24_linear_243_220)"/>
<path fill-rule="evenodd" clip-rule="evenodd" d="M219.96 269.892C219.96 273.371 218.362 276.476 215.859 278.514C214.584 279.552 211.444 281.74 206.437 285.079L133.3 169.974C137.716 166.567 141.173 164.267 143.67 163.076C145.117 162.386 146.737 162 148.448 162C149.99 162 151.515 162.321 152.927 162.943L205.034 185.891C214.105 189.886 219.96 198.862 219.96 208.774V269.892Z" fill="url(#paint25_linear_243_220)"/>
<path fill-rule="evenodd" clip-rule="evenodd" d="M144.592 168.499L197.529 191.812C206.096 195.585 211.625 204.063 211.625 213.424V275.711C211.625 281.849 206.65 286.824 200.513 286.824C198.983 286.824 197.47 286.508 196.068 285.896L143.169 262.811C134.563 259.055 129 250.557 129 241.167V178.669C129 172.532 133.975 167.556 140.113 167.556C141.655 167.556 143.18 167.877 144.592 168.499Z" fill="#33363F"/>
<g filter="url(#filter2_f_243_220)">
<path fill-rule="evenodd" clip-rule="evenodd" d="M144.431 168.57C143.07 167.971 141.599 167.56 140.113 167.56C141.711 167.56 143.291 167.786 144.753 168.43L197.69 191.446C206.402 195.283 212.025 203.904 212.025 213.424L211.63 264.568L211.225 213.424C211.225 204.221 205.789 195.887 197.367 192.178L144.431 168.57Z" fill="#696D77"/>
</g>
<g filter="url(#filter3_d_243_220)">
<path d="M152.813 242.85C151.287 242.197 149.823 240.813 148.744 239.003C147.664 237.194 147.058 235.106 147.058 233.2V227.81C147.058 223.522 148.422 219.993 150.851 218C153.279 216.007 156.572 215.714 160.006 217.184C160.512 217.4 161.016 217.653 161.517 217.941C161.824 214.404 163.13 211.517 165.238 209.787C167.666 207.794 170.96 207.501 174.394 208.971C177.828 210.441 181.121 213.554 183.549 217.626C185.978 221.698 187.342 226.395 187.342 230.684V239.658C187.342 242.019 186.969 244.197 186.246 246.068C185.523 247.939 184.462 249.467 183.126 250.563C181.789 251.66 180.202 252.305 178.456 252.461C176.826 252.606 175.087 252.323 173.325 251.626L172.955 251.474L152.813 242.85Z" fill="#4B5CFA"/>
</g>
<path d="M152.813 242.85C151.287 242.197 149.823 240.813 148.744 239.003C147.664 237.194 147.058 235.106 147.058 233.2V227.81C147.058 223.522 148.422 219.993 150.851 218C153.279 216.007 156.572 215.714 160.006 217.184C160.512 217.401 161.016 217.653 161.517 217.941L160.748 246.248C158.985 245.493 156.34 244.36 152.813 242.85Z" fill="#19D4EE"/>
<path fill-rule="evenodd" clip-rule="evenodd" d="M161.516 217.941L160.714 246.237L169.746 250.096C169.974 243.217 170.088 236.927 170.088 231.225C170.088 225.523 167.231 221.095 161.516 217.941Z" fill="#002CD9"/>
<path d="M533.5 249.5L545.5 255.5L545 269L534.5 277L522.5 271L523 257.5L533.5 249.5Z" fill="url(#paint26_linear_243_220)"/>
<path d="M535 263.5L545.5 255.5L545 269L534.5 277L535 263.5Z" fill="url(#paint27_linear_243_220)"/>
<path d="M533.5 249.5L545.5 255.5L535 263.5L523 257.5L533.5 249.5Z" fill="#33363F"/>
<path d="M528.5 266.5L428 345.5L427 392" stroke="#33363F" stroke-linecap="round" stroke-linejoin="round"/>
<path d="M426.5 331.5L438.5 337.5L438 351L427.5 359L415.5 353L416 339.5L426.5 331.5Z" fill="url(#paint28_linear_243_220)"/>
<path d="M428 345.5L438.5 337.5L438 351L427.5 359L428 345.5Z" fill="url(#paint29_linear_243_220)"/>
<path d="M426.5 331.5L438.5 337.5L428 345.5L416 339.5L426.5 331.5Z" fill="url(#paint30_linear_243_220)"/>
<path d="M147 109L159 113L158.5 126.5L148 132.5L136 128.5L136.5 115L147 109Z" fill="url(#paint31_linear_243_220)"/>
<path d="M148.5 119L159 113L158.5 126.5L148 132.5L148.5 119Z" fill="url(#paint32_linear_243_220)"/>
<path d="M147 109L159 113L148.5 119L136.5 115L147 109Z" fill="url(#paint33_linear_243_220)"/>
<path d="M531.5 300.5L543.5 305.5L543 319L532.5 326L520.5 322L521 308.5L531.5 300.5Z" fill="url(#paint34_linear_243_220)"/>
<path d="M533 313.5L543.5 305.5L543 319L532.5 326L533 313.5Z" fill="url(#paint35_linear_243_220)"/>
<path d="M531.5 300.5L543.5 305.5L533 313.5L521 308.5L531.5 300.5Z" fill="#33363F"/>
<path d="M632.5 171.5L644.5 175.5L644 190L633.5 197L621.5 193L622 178.5L632.5 171.5Z" fill="url(#paint36_linear_243_220)"/>
<path d="M634 183.5L644.5 175.5L644 190L633.5 197L634 183.5Z" fill="url(#paint37_linear_243_220)"/>
<path d="M632.5 171.5L644.5 175.5L634 183.5L622 178.5L632.5 171.5Z" fill="url(#paint38_linear_243_220)"/>
<defs>
<filter id="filter0_f_243_220" x="359.047" y="89.2801" width="127.495" height="171.637" filterUnits="userSpaceOnUse" color-interpolation-filters="sRGB">
<feFlood flood-opacity="0" result="BackgroundImageFix"/>
<feBlend mode="normal" in="SourceGraphic" in2="BackgroundImageFix" result="shape"/>
<feGaussianBlur stdDeviation="0.25" result="effect1_foregroundBlur_243_220"/>
</filter>
<filter id="filter1_f_243_220" x="239.308" y="91.558" width="169.404" height="170.139" filterUnits="userSpaceOnUse" color-interpolation-filters="sRGB">
<feFlood flood-opacity="0" result="BackgroundImageFix"/>
<feBlend mode="normal" in="SourceGraphic" in2="BackgroundImageFix" result="shape"/>
<feGaussianBlur stdDeviation="0.25" result="effect1_foregroundBlur_243_220"/>
</filter>
<filter id="filter2_f_243_220" x="139.613" y="167.06" width="72.9126" height="98.0076" filterUnits="userSpaceOnUse" color-interpolation-filters="sRGB">
<feFlood flood-opacity="0" result="BackgroundImageFix"/>
<feBlend mode="normal" in="SourceGraphic" in2="BackgroundImageFix" result="shape"/>
<feGaussianBlur stdDeviation="0.25" result="effect1_foregroundBlur_243_220"/>
</filter>
<filter id="filter3_d_243_220" x="141.058" y="202.047" width="52.2837" height="56.451" filterUnits="userSpaceOnUse" color-interpolation-filters="sRGB">
<feFlood flood-opacity="0" result="BackgroundImageFix"/>
<feColorMatrix in="SourceAlpha" type="matrix" values="0 0 0 0 0 0 0 0 0 0 0 0 0 0 0 0 0 0 127 0" result="hardAlpha"/>
<feOffset/>
<feGaussianBlur stdDeviation="3"/>
<feComposite in2="hardAlpha" operator="out"/>
<feColorMatrix type="matrix" values="0 0 0 0 0.294118 0 0 0 0 0.360784 0 0 0 0 0.980392 0 0 0 0.4 0"/>
<feBlend mode="normal" in2="BackgroundImageFix" result="effect1_dropShadow_243_220"/>
<feBlend mode="normal" in="SourceGraphic" in2="effect1_dropShadow_243_220" result="shape"/>
</filter>
<linearGradient id="paint0_linear_243_220" x1="440.814" y1="84" x2="457.345" y2="100.838" gradientUnits="userSpaceOnUse">
<stop stop-color="#4B5CFA"/>
<stop offset="1" stop-color="#002CD9"/>
</linearGradient>
<linearGradient id="paint1_linear_243_220" x1="448.737" y1="88" x2="460.814" y2="94.9777" gradientUnits="userSpaceOnUse">
<stop stop-color="#4B5CFA"/>
<stop offset="1" stop-color="#002CD9"/>
</linearGradient>
<linearGradient id="paint2_linear_243_220" x1="434.5" y1="84.4286" x2="455.434" y2="96.9116" gradientUnits="userSpaceOnUse">
<stop stop-color="#19D4EE"/>
<stop offset="1" stop-color="#4B5CFA"/>
</linearGradient>
<linearGradient id="paint3_linear_243_220" x1="119.814" y1="65.2449" x2="136.183" y2="82.0791" gradientUnits="userSpaceOnUse">
<stop stop-color="#262931"/>
<stop offset="1" stop-color="#1C1D22"/>
</linearGradient>
<linearGradient id="paint4_linear_243_220" x1="128.077" y1="72" x2="139.513" y2="80.3773" gradientUnits="userSpaceOnUse">
<stop stop-color="#262931"/>
<stop offset="1" stop-color="#1C1D22"/>
</linearGradient>
<linearGradient id="paint5_linear_243_220" x1="519.814" y1="83" x2="537.616" y2="99.8134" gradientUnits="userSpaceOnUse">
<stop stop-color="#262931"/>
<stop offset="1" stop-color="#1C1D22"/>
</linearGradient>
<linearGradient id="paint6_linear_243_220" x1="527.737" y1="89" x2="539.814" y2="95.9777" gradientUnits="userSpaceOnUse">
<stop stop-color="#262931"/>
<stop offset="1" stop-color="#1C1D22"/>
</linearGradient>
<linearGradient id="paint7_linear_243_220" x1="249.814" y1="2.70029e-07" x2="266.345" y2="16.838" gradientUnits="userSpaceOnUse">
<stop stop-color="#4B5CFA"/>
<stop offset="1" stop-color="#002CD9"/>
</linearGradient>
<linearGradient id="paint8_linear_243_220" x1="257.737" y1="4" x2="269.814" y2="10.9777" gradientUnits="userSpaceOnUse">
<stop stop-color="#4B5CFA"/>
<stop offset="1" stop-color="#002CD9"/>
</linearGradient>
<linearGradient id="paint9_linear_243_220" x1="243.5" y1="0.392858" x2="263.44" y2="13.3639" gradientUnits="userSpaceOnUse">
<stop stop-color="#19D4EE"/>
<stop offset="1" stop-color="#4B5CFA"/>
</linearGradient>
<linearGradient id="paint10_linear_243_220" x1="7.81377" y1="129.245" x2="24.1826" y2="146.079" gradientUnits="userSpaceOnUse">
<stop stop-color="#262931"/>
<stop offset="1" stop-color="#1C1D22"/>
</linearGradient>
<linearGradient id="paint11_linear_243_220" x1="16.0767" y1="136" x2="27.5134" y2="144.377" gradientUnits="userSpaceOnUse">
<stop stop-color="#262931"/>
<stop offset="1" stop-color="#1C1D22"/>
</linearGradient>
<linearGradient id="paint12_linear_243_220" x1="395.409" y1="75.6024" x2="610.24" y2="203.162" gradientUnits="userSpaceOnUse">
<stop stop-color="#262931"/>
<stop offset="0.488945" stop-color="#262931"/>
<stop offset="1" stop-color="#1C1D22"/>
</linearGradient>
<linearGradient id="paint13_linear_243_220" x1="395.825" y1="227.394" x2="446.501" y2="274.677" gradientUnits="userSpaceOnUse">
<stop stop-color="#262931"/>
<stop offset="1" stop-color="#1C1D22"/>
</linearGradient>
<linearGradient id="paint14_linear_243_220" x1="343.849" y1="148.808" x2="398.676" y2="211.258" gradientUnits="userSpaceOnUse">
<stop stop-color="#262931"/>
<stop offset="1" stop-color="#1C1D22"/>
</linearGradient>
<linearGradient id="paint15_linear_243_220" x1="275.085" y1="82.428" x2="318.24" y2="150.368" gradientUnits="userSpaceOnUse">
<stop stop-color="#262931"/>
<stop offset="1" stop-color="#1C1D22"/>
</linearGradient>
<linearGradient id="paint16_linear_243_220" x1="212.039" y1="120.964" x2="220.73" y2="162.364" gradientUnits="userSpaceOnUse">
<stop stop-color="#262931"/>
<stop offset="1" stop-color="#1C1D22"/>
</linearGradient>
<linearGradient id="paint17_linear_243_220" x1="262.814" y1="307" x2="280.616" y2="323.813" gradientUnits="userSpaceOnUse">
<stop stop-color="#4B5CFA"/>
<stop offset="1" stop-color="#002CD9"/>
</linearGradient>
<linearGradient id="paint18_linear_243_220" x1="270.737" y1="313" x2="282.814" y2="319.978" gradientUnits="userSpaceOnUse">
<stop stop-color="#4B5CFA"/>
<stop offset="1" stop-color="#002CD9"/>
</linearGradient>
<linearGradient id="paint19_linear_243_220" x1="256.5" y1="307.5" x2="279" y2="319" gradientUnits="userSpaceOnUse">
<stop stop-color="#19D4EE"/>
<stop offset="1" stop-color="#4B5CFA"/>
</linearGradient>
<linearGradient id="paint20_linear_243_220" x1="337.814" y1="290" x2="355.616" y2="306.813" gradientUnits="userSpaceOnUse">
<stop stop-color="#262931"/>
<stop offset="1" stop-color="#1C1D22"/>
</linearGradient>
<linearGradient id="paint21_linear_243_220" x1="345.737" y1="296" x2="357.814" y2="302.978" gradientUnits="userSpaceOnUse">
<stop stop-color="#262931"/>
<stop offset="1" stop-color="#1C1D22"/>
</linearGradient>
<linearGradient id="paint22_linear_243_220" x1="378.814" y1="56" x2="395.345" y2="72.838" gradientUnits="userSpaceOnUse">
<stop stop-color="#262931"/>
<stop offset="1" stop-color="#1C1D22"/>
</linearGradient>
<linearGradient id="paint23_linear_243_220" x1="386.737" y1="60" x2="398.814" y2="66.9777" gradientUnits="userSpaceOnUse">
<stop stop-color="#262931"/>
<stop offset="1" stop-color="#1C1D22"/>
</linearGradient>
<linearGradient id="paint24_linear_243_220" x1="161" y1="238" x2="207" y2="157" gradientUnits="userSpaceOnUse">
<stop stop-color="#4B5CFA"/>
<stop offset="1" stop-color="#4B5CFA" stop-opacity="0"/>
</linearGradient>
<linearGradient id="paint25_linear_243_220" x1="160.5" y1="159.5" x2="282.631" y2="232.018" gradientUnits="userSpaceOnUse">
<stop stop-color="#262931"/>
<stop offset="0.488945" stop-color="#262931"/>
<stop offset="1" stop-color="#1C1D22"/>
</linearGradient>
<linearGradient id="paint26_linear_243_220" x1="530.314" y1="249.5" x2="548.116" y2="266.313" gradientUnits="userSpaceOnUse">
<stop stop-color="#262931"/>
<stop offset="1" stop-color="#1C1D22"/>
</linearGradient>
<linearGradient id="paint27_linear_243_220" x1="538.237" y1="255.5" x2="550.314" y2="262.478" gradientUnits="userSpaceOnUse">
<stop stop-color="#262931"/>
<stop offset="1" stop-color="#1C1D22"/>
</linearGradient>
<linearGradient id="paint28_linear_243_220" x1="423.314" y1="331.5" x2="441.116" y2="348.313" gradientUnits="userSpaceOnUse">
<stop stop-color="#4B5CFA"/>
<stop offset="1" stop-color="#002CD9"/>
</linearGradient>
<linearGradient id="paint29_linear_243_220" x1="431.237" y1="337.5" x2="443.314" y2="344.478" gradientUnits="userSpaceOnUse">
<stop stop-color="#4B5CFA"/>
<stop offset="1" stop-color="#002CD9"/>
</linearGradient>
<linearGradient id="paint30_linear_243_220" x1="417" y1="332" x2="439.5" y2="343.5" gradientUnits="userSpaceOnUse">
<stop stop-color="#19D4EE"/>
<stop offset="1" stop-color="#4B5CFA"/>
</linearGradient>
<linearGradient id="paint31_linear_243_220" x1="143.814" y1="107" x2="161.616" y2="123.813" gradientUnits="userSpaceOnUse">
<stop stop-color="#4B5CFA"/>
<stop offset="1" stop-color="#002CD9"/>
</linearGradient>
<linearGradient id="paint32_linear_243_220" x1="151.737" y1="113" x2="163.814" y2="119.978" gradientUnits="userSpaceOnUse">
<stop stop-color="#4B5CFA"/>
<stop offset="1" stop-color="#002CD9"/>
</linearGradient>
<linearGradient id="paint33_linear_243_220" x1="137.5" y1="107.5" x2="160" y2="119" gradientUnits="userSpaceOnUse">
<stop stop-color="#19D4EE"/>
<stop offset="1" stop-color="#4B5CFA"/>
</linearGradient>
<linearGradient id="paint34_linear_243_220" x1="528.314" y1="299.5" x2="546.116" y2="316.313" gradientUnits="userSpaceOnUse">
<stop stop-color="#262931"/>
<stop offset="1" stop-color="#1C1D22"/>
</linearGradient>
<linearGradient id="paint35_linear_243_220" x1="536.237" y1="305.5" x2="548.314" y2="312.478" gradientUnits="userSpaceOnUse">
<stop stop-color="#262931"/>
<stop offset="1" stop-color="#1C1D22"/>
</linearGradient>
<linearGradient id="paint36_linear_243_220" x1="629.314" y1="171.5" x2="645.845" y2="188.338" gradientUnits="userSpaceOnUse">
<stop stop-color="#4B5CFA"/>
<stop offset="1" stop-color="#002CD9"/>
</linearGradient>
<linearGradient id="paint37_linear_243_220" x1="637.237" y1="175.5" x2="649.314" y2="182.478" gradientUnits="userSpaceOnUse">
<stop stop-color="#4B5CFA"/>
<stop offset="1" stop-color="#002CD9"/>
</linearGradient>
<linearGradient id="paint38_linear_243_220" x1="623" y1="171.968" x2="644.85" y2="183.911" gradientUnits="userSpaceOnUse">
<stop stop-color="#19D4EE"/>
<stop offset="1" stop-color="#4B5CFA"/>
</linearGradient>
</defs>
</svg>
