<svg width="549" height="349" viewBox="0 0 549 349" fill="none" xmlns="http://www.w3.org/2000/svg">
<path fill-rule="evenodd" clip-rule="evenodd" d="M252.487 347.763C325.851 354.178 321.789 273.293 424.822 278.44C487.699 281.581 540.756 252.204 546.918 225.591C547.458 223.258 547.921 216.934 548.308 206.618L0.573242 301.683C2.41837 309.056 3.35877 312.871 3.39442 313.127C8.53448 350.162 100.861 334.504 252.487 347.763Z" fill="url(#paint0_linear_887_2879)"/>
<path fill-rule="evenodd" clip-rule="evenodd" d="M252.487 333.763C325.851 340.178 321.789 259.293 424.822 264.44C495.966 267.994 555.575 229.664 547.595 201.13C541.394 178.96 523.737 94.0396 416.302 79.4752C386.765 75.4711 302.884 80.6605 229.819 105.241C179.246 122.254 142.045 133.714 115.911 138.96C-6.5396 163.54 2.88555 258.524 0.0573464 296.355C-2.77085 334.187 99.2534 320.363 252.487 333.763Z" fill="url(#paint1_linear_887_2879)"/>
<path fill-rule="evenodd" clip-rule="evenodd" d="M282.998 68.8972H288.998V154.182L286.993 154.892L282.998 68.8972Z" fill="#0E264E"/>
<path fill-rule="evenodd" clip-rule="evenodd" d="M280.998 68.8972H286.998V154.897L280.998 153.569V68.8972Z" fill="#18366A"/>
<path fill-rule="evenodd" clip-rule="evenodd" d="M289.685 0.592465L315.463 16.4403C316.386 17.008 317.04 17.9261 317.274 18.9846L324.037 49.5869C324.316 50.8482 323.969 52.1665 323.104 53.1265L305.327 72.8721C304.696 73.5732 303.837 74.0286 302.903 74.158L298.071 74.8267L281.477 0.591639L287.192 0.0198715C288.063 -0.0672927 288.939 0.133862 289.685 0.592465Z" fill="url(#paint2_linear_887_2879)"/>
<path opacity="0.5" d="M280.683 1.50187C281.615 0.708069 282.953 0.609381 283.992 1.25797L310.694 17.9412C311.605 18.5103 312.248 19.4216 312.48 20.4703L319.051 50.1991C319.329 51.4604 318.982 52.7787 318.118 53.7387L300.416 73.4004C299.471 74.4509 297.949 74.7602 296.669 74.1623" stroke="url(#paint3_linear_887_2879)" stroke-width="0.674093"/>
<path fill-rule="evenodd" clip-rule="evenodd" d="M283.855 1.17255L310.694 17.9412C311.604 18.5103 312.248 19.4216 312.48 20.4703L319.051 50.1991C319.329 51.4604 318.982 52.7787 318.118 53.7387L300.252 73.5829C299.36 74.574 298.032 75.0552 296.712 74.8661L267.363 70.6629C266.283 70.5082 265.312 69.9188 264.677 69.0314L246.059 43.0183C245.387 42.0793 245.153 40.8956 245.418 39.7716L251.869 12.4346C252.186 11.0915 253.173 10.0066 254.48 9.56426L280.453 0.775884C281.589 0.391515 282.838 0.537107 283.855 1.17255Z" fill="url(#paint4_linear_887_2879)"/>
<path fill-rule="evenodd" clip-rule="evenodd" d="M283.855 5.67255L307.109 20.2017C308.02 20.7708 308.664 21.6822 308.896 22.7308L314.581 48.4543C314.86 49.7156 314.512 51.0339 313.648 51.9939L298.263 69.0829C297.371 70.074 296.043 70.5552 294.723 70.3661L269.352 66.7326C268.272 66.5779 267.302 65.9885 266.666 65.1011L250.529 42.5537C249.856 41.6146 249.623 40.4309 249.888 39.307L255.453 15.7218C255.77 14.3787 256.757 13.2938 258.064 12.8515L280.453 5.27588C281.589 4.89151 282.838 5.03711 283.855 5.67255Z" fill="url(#paint5_linear_887_2879)"/>
<path d="M278.754 23.1443L279.206 43.8982L283.545 44.6277L283.975 23.8738L278.754 23.1443ZM281.397 55.0881C283.374 55.2704 284.684 54.0808 284.684 52.1257C284.684 50.1277 283.374 48.6962 281.397 48.5139C279.399 48.3296 278.067 49.5172 278.067 51.5153C278.067 53.4704 279.399 54.9038 281.397 55.0881Z" fill="#10317D"/>
<path opacity="0.2" fill-rule="evenodd" clip-rule="evenodd" d="M451.894 197.637L392.3 215.734L364.284 207.829L389.987 104.5L509.416 187.634C507.841 196.049 506.995 200.957 506.88 202.356C506.692 204.627 503.827 208.698 498.285 214.569L474.715 216.047L451.894 197.637Z" fill="#11141D"/>
<path fill-rule="evenodd" clip-rule="evenodd" d="M463.722 195.426L417.564 213.244C409.599 216.919 402.018 217.971 394.822 216.401C384.771 214.207 377.776 209.691 377.295 201.901C377.272 201.517 377.276 200.927 377.31 200.132L378.507 184.007L463.817 170.638L523.292 184.904C521.717 193.319 520.872 198.227 520.756 199.626C520.474 203.032 517.471 206.56 511.748 210.21C502.498 216.108 493.314 216.202 484.196 210.49L463.722 195.426Z" fill="url(#paint6_linear_887_2879)"/>
<path fill-rule="evenodd" clip-rule="evenodd" d="M465.276 173.803L463.726 195.424L484.69 210.838C488.22 212.844 491.793 214.041 495.411 214.43C497.661 214.672 502.995 214.721 507.014 212.515C509.693 211.045 510.884 206.136 510.586 197.788L465.276 173.803Z" fill="url(#paint7_linear_887_2879)"/>
<path d="M522.78 185.778C522.245 188.741 519.539 191.756 514.338 195.072C505.088 200.971 495.679 201.049 486.113 195.306L466.83 181.117C466.088 180.572 465.12 180.442 464.261 180.773L419.481 198.059C411.516 201.735 403.935 202.787 396.739 201.216C387.09 199.11 379.836 194.217 378.822 186.937C378.702 186.073 378.757 185.264 378.828 184.333" stroke="url(#paint8_linear_887_2879)" stroke-width="0.674093"/>
<path fill-rule="evenodd" clip-rule="evenodd" d="M464.605 180.64L419.481 198.059C411.515 201.735 403.935 202.787 396.739 201.216C385.945 198.86 377.799 193.008 378.465 184.238L388.193 107.732C389.288 99.8338 394.624 95.4146 404.203 94.4745C413.781 93.5344 422.512 95.9399 430.395 101.691L520.766 178.33C525.731 183.593 523.588 189.174 514.338 195.072C505.087 200.971 495.679 201.049 486.113 195.306L466.532 180.898C465.976 180.489 465.249 180.392 464.605 180.64Z" fill="#33363F"/>
<path d="M420.941 161.796L420.719 163.781C420.586 165.684 421.458 166.498 423.828 166.466C426.198 166.435 432.161 164.361 441.716 160.246C444.488 158.841 444.797 156.968 442.644 154.629C440.491 152.29 435.233 148.262 427.265 141.999" stroke="url(#paint9_linear_887_2879)" stroke-width="0.674093"/>
<path d="M497.495 185.687C502.324 186.024 506.417 183.741 506.637 180.586C506.858 177.432 503.123 174.601 498.294 174.263C493.466 173.926 489.372 176.209 489.152 179.364C488.931 182.518 492.667 185.349 497.495 185.687Z" fill="url(#paint10_linear_887_2879)"/>
<path d="M497.542 185.015C502.371 185.352 506.464 183.069 506.684 179.914C506.905 176.76 503.169 173.929 498.341 173.591C493.512 173.254 489.419 175.537 489.199 178.692C488.978 181.846 492.714 184.677 497.542 185.015Z" fill="url(#paint11_linear_887_2879)"/>
<path d="M399.854 190.338C404.682 190.676 408.775 188.392 408.996 185.238C409.216 182.083 405.481 179.252 400.652 178.915C395.824 178.577 391.731 180.86 391.51 184.015C391.29 187.169 395.025 190 399.854 190.338Z" fill="url(#paint12_linear_887_2879)"/>
<path d="M399.901 189.666C404.729 190.004 408.822 187.72 409.043 184.566C409.263 181.411 405.528 178.58 400.699 178.243C395.871 177.905 391.778 180.188 391.557 183.343C391.337 186.497 395.072 189.328 399.901 189.666Z" fill="url(#paint13_linear_887_2879)"/>
<path d="M409.918 114.064C414.746 114.401 418.839 112.118 419.06 108.964C419.28 105.809 415.545 102.978 410.716 102.641C405.888 102.303 401.795 104.586 401.574 107.741C401.354 110.895 405.089 113.726 409.918 114.064Z" fill="url(#paint14_linear_887_2879)"/>
<path d="M409.964 113.392C414.793 113.73 418.886 111.446 419.107 108.292C419.327 105.137 415.592 102.306 410.763 101.969C405.935 101.631 401.842 103.914 401.621 107.069C401.401 110.223 405.136 113.054 409.964 113.392Z" fill="url(#paint15_linear_887_2879)"/>
<path fill-rule="evenodd" clip-rule="evenodd" d="M421.883 143.472L420.467 163.711C420.335 165.614 421.454 166.549 423.824 166.518C426.195 166.487 432.157 164.413 441.713 160.298C444.484 158.892 444.794 157.02 442.64 154.681C440.487 152.342 435.427 148.041 427.46 141.778C426.155 141.083 424.96 140.949 423.875 141.375C422.791 141.802 422.126 142.5 421.883 143.472Z" fill="url(#paint16_linear_887_2879)"/>
<path opacity="0.2" fill-rule="evenodd" clip-rule="evenodd" d="M262.646 271.583C298.893 272.502 325.66 261.871 342.946 239.688C305.637 215.876 276.91 200.837 256.767 194.572C236.624 188.307 213.582 187.245 187.643 191.385C171.552 198.491 165.24 208.899 168.707 222.609C175.541 249.631 220.003 265.502 262.646 271.583Z" fill="#11141D"/>
<path fill-rule="evenodd" clip-rule="evenodd" d="M269.511 261.825C307.987 264.832 338.63 252.645 345.74 233.679C346.698 231.125 348.21 223.024 350.278 209.377L180.41 184.311C180.228 198.558 180.463 206.928 181.115 209.42C187.616 234.266 226.608 257.984 269.511 261.825Z" fill="url(#paint17_linear_887_2879)"/>
<path fill-rule="evenodd" clip-rule="evenodd" d="M270.036 245.103C317.584 248.819 353.497 229.765 349.746 203.366C345.881 177.097 177.88 159.51 180.777 186.88C183.56 214.381 222.927 240.886 270.036 245.103Z" stroke="url(#paint18_linear_887_2879)" stroke-width="0.674093"/>
<path fill-rule="evenodd" clip-rule="evenodd" d="M270.399 244.846C317.948 248.562 353.86 229.71 350.109 203.311C346.244 177.042 304.943 152.304 258.362 147.487C212.221 142.168 177.573 159.581 180.47 186.952C183.253 214.452 223.291 240.628 270.399 244.846Z" fill="#33363F"/>
<path d="M315.385 227.464C320.218 227.211 324.003 224.445 323.837 221.288C323.672 218.13 319.619 215.775 314.785 216.029C309.952 216.282 306.167 219.047 306.333 222.205C306.498 225.363 310.551 227.717 315.385 227.464Z" fill="url(#paint19_linear_887_2879)"/>
<path d="M315.349 226.791C320.183 226.538 323.967 223.773 323.802 220.615C323.636 217.457 319.584 215.103 314.75 215.356C309.916 215.609 306.132 218.374 306.298 221.532C306.463 224.69 310.516 227.045 315.349 226.791Z" fill="url(#paint20_linear_887_2879)"/>
<path d="M219.385 168.464C224.218 168.211 228.003 165.445 227.837 162.288C227.672 159.13 223.619 156.775 218.785 157.029C213.952 157.282 210.167 160.047 210.333 163.205C210.498 166.363 214.551 168.717 219.385 168.464Z" fill="url(#paint21_linear_887_2879)"/>
<path d="M219.349 167.791C224.183 167.538 227.967 164.773 227.802 161.615C227.636 158.457 223.584 156.103 218.75 156.356C213.916 156.609 210.132 159.374 210.298 162.532C210.463 165.69 214.516 168.045 219.349 167.791Z" fill="url(#paint22_linear_887_2879)"/>
<path fill-rule="evenodd" clip-rule="evenodd" d="M195.46 162.242L195.511 158.897L281.009 151.444L287.01 153.059L195.46 162.242Z" fill="url(#paint23_linear_887_2879)"/>
<path fill-rule="evenodd" clip-rule="evenodd" d="M314.91 200.627L314.961 197.282L331.589 196.021L341.023 203.741L314.91 200.627Z" fill="url(#paint24_linear_887_2879)"/>
<path fill-rule="evenodd" clip-rule="evenodd" d="M183.819 174.422L185.388 169.13L197.949 169.95L206.023 177.741L195.562 181.153L183.819 174.422Z" fill="url(#paint25_linear_887_2879)"/>
<path fill-rule="evenodd" clip-rule="evenodd" d="M258.964 173.682L297.697 198.163C303.714 201.966 301.886 207.613 293.613 210.776C285.341 213.939 273.758 213.421 267.742 209.619L229.008 185.138C222.991 181.335 224.82 175.688 233.092 172.525C241.364 169.362 252.947 169.88 258.964 173.682Z" stroke="url(#paint26_linear_887_2879)" stroke-width="0.674093"/>
<path d="M258.963 173.682L297.697 198.163C303.714 201.966 301.885 207.613 293.613 210.776C285.341 213.939 273.758 213.421 267.741 209.619L229.007 185.138C222.991 181.335 224.819 175.688 233.091 172.525C241.363 169.362 252.947 169.88 258.963 173.682Z" fill="url(#paint27_linear_887_2879)"/>
<mask id="mask0_887_2879" style="mask-type:alpha" maskUnits="userSpaceOnUse" x="225" y="170" width="77" height="43">
<path d="M258.963 173.682L297.697 198.163C303.714 201.966 301.885 207.613 293.613 210.776C285.341 213.939 273.758 213.421 267.741 209.619L229.007 185.138C222.991 181.335 224.819 175.688 233.091 172.525C241.363 169.362 252.947 169.88 258.963 173.682Z" fill="url(#paint28_linear_887_2879)"/>
</mask>
<g mask="url(#mask0_887_2879)">
<path fill-rule="evenodd" clip-rule="evenodd" d="M253.963 189.682L292.697 214.163C298.714 217.966 296.885 223.613 288.613 226.776C280.341 229.939 268.758 229.421 262.741 225.619L224.007 201.138C217.991 197.335 219.819 191.688 228.091 188.525C236.363 185.362 247.947 185.88 253.963 189.682Z" fill="url(#paint29_linear_887_2879)"/>
</g>
<path opacity="0.2" fill-rule="evenodd" clip-rule="evenodd" d="M129.611 287.405L69.1523 302.358L41.5881 292.997L72.664 191.155L187.578 280.425C185.565 288.747 184.463 293.603 184.274 294.995C183.968 297.253 180.894 301.168 175.053 306.741L151.438 306.983L129.611 287.405Z" fill="#11141D"/>
<path fill-rule="evenodd" clip-rule="evenodd" d="M141.539 285.815L94.5117 301.193C86.3646 304.446 78.7391 305.1 71.6351 303.155C61.7129 300.438 54.9642 295.562 54.8916 287.758C54.888 287.374 54.9237 286.785 54.9988 285.992L57.0385 269.952L142.931 261.066L201.578 278.425C199.565 286.747 198.464 291.603 198.275 292.995C197.815 296.381 194.632 299.747 188.726 303.092C179.179 308.499 170.003 308.111 161.196 301.93L141.539 285.815Z" fill="url(#paint30_linear_887_2879)"/>
<path fill-rule="evenodd" clip-rule="evenodd" d="M144.222 264.303L141.543 285.813L161.672 302.304C165.091 304.491 168.597 305.874 172.19 306.452C174.424 306.811 179.748 307.139 183.877 305.147C186.629 303.819 188.075 298.979 188.214 290.627L144.222 264.303Z" fill="url(#paint31_linear_887_2879)"/>
<path d="M201.021 279.271C200.331 282.202 197.471 285.071 192.104 288.111C182.557 293.518 173.158 293.103 163.905 286.867L145.391 271.689C144.679 271.105 143.719 270.925 142.844 271.211L97.2207 286.13C89.0736 289.383 81.448 290.037 74.3441 288.092C64.8187 285.484 57.8309 280.218 57.1996 272.894C57.1246 272.025 57.2217 271.22 57.3412 270.295" stroke="url(#paint32_linear_887_2879)" stroke-width="0.674093"/>
<path fill-rule="evenodd" clip-rule="evenodd" d="M143.195 271.096L97.2209 286.13C89.0738 289.383 81.4483 290.037 74.3444 288.092C63.6885 285.174 55.8599 278.903 56.9849 270.18L70.7028 194.289C72.2095 186.458 77.7702 182.325 87.3847 181.887C96.9992 181.45 105.592 184.309 113.164 190.465L199.4 271.728C204.082 277.244 201.65 282.704 192.104 288.111C182.558 293.518 173.158 293.103 163.906 286.867L145.106 271.454C144.572 271.017 143.851 270.882 143.195 271.096Z" fill="#33363F"/>
<path d="M100.577 249.992L100.25 251.963C100.019 253.856 100.846 254.714 103.215 254.807C105.583 254.9 111.646 253.141 121.404 249.532C124.245 248.273 124.652 246.42 122.625 243.971C120.597 241.522 115.557 237.225 107.928 230.554" stroke="url(#paint33_linear_887_2879)" stroke-width="0.674093"/>
<path d="M175.775 277.857C180.58 278.447 184.787 276.38 185.172 273.242C185.557 270.103 181.975 267.081 177.171 266.491C172.367 265.901 168.16 267.967 167.774 271.106C167.389 274.244 170.971 277.267 175.775 277.857Z" fill="url(#paint34_linear_887_2879)"/>
<path d="M175.857 277.188C180.662 277.778 184.869 275.712 185.254 272.573C185.639 269.435 182.057 266.412 177.253 265.822C172.449 265.232 168.242 267.298 167.856 270.437C167.471 273.576 171.053 276.598 175.857 277.188Z" fill="url(#paint35_linear_887_2879)"/>
<path d="M78.0239 277.391C82.8281 277.981 87.0351 275.915 87.4205 272.777C87.8059 269.638 84.2237 266.616 79.4195 266.026C74.6153 265.436 70.4083 267.502 70.0229 270.64C69.6376 273.779 73.2197 276.802 78.0239 277.391Z" fill="url(#paint36_linear_887_2879)"/>
<path d="M78.106 276.723C82.9102 277.313 87.1172 275.247 87.5025 272.108C87.8879 268.969 84.3057 265.947 79.5015 265.357C74.6973 264.767 70.4903 266.833 70.105 269.972C69.7196 273.11 73.3018 276.133 78.106 276.723Z" fill="url(#paint37_linear_887_2879)"/>
<path d="M92.0664 201.749C96.8706 202.339 101.078 200.272 101.463 197.134C101.848 193.995 98.2662 190.973 93.462 190.383C88.6578 189.793 84.4508 191.859 84.0654 194.998C83.68 198.136 87.2622 201.159 92.0664 201.749Z" fill="url(#paint38_linear_887_2879)"/>
<path d="M92.1485 201.08C96.9527 201.67 101.16 199.604 101.545 196.465C101.93 193.327 98.3482 190.304 93.544 189.714C88.7398 189.124 84.5328 191.191 84.1474 194.329C83.7621 197.468 87.3442 200.49 92.1485 201.08Z" fill="url(#paint39_linear_887_2879)"/>
<path fill-rule="evenodd" clip-rule="evenodd" d="M102.476 231.742L100.003 251.88C99.7716 253.773 100.84 254.766 103.209 254.859C105.577 254.951 111.64 253.193 121.398 249.583C124.239 248.325 124.646 246.471 122.618 244.023C120.591 241.574 115.763 237.014 108.134 230.343C106.867 229.581 105.681 229.385 104.575 229.753C103.47 230.122 102.77 230.785 102.476 231.742Z" fill="url(#paint40_linear_887_2879)"/>
<path d="M347.859 179.364L357.964 186.824L353.042 200.369L340.976 203.76L330.871 196.299L335.794 182.754L347.859 179.364Z" fill="url(#paint41_linear_887_2879)"/>
<path d="M345.593 191.16L357.964 186.824L353.042 200.369L340.976 203.76L345.593 191.16Z" fill="url(#paint42_linear_887_2879)"/>
<path d="M347.859 179.364L357.964 186.824L345.592 191.159L335.794 182.754L347.859 179.364Z" fill="url(#paint43_linear_887_2879)"/>
<path d="M211.088 153.785L218.745 163.742L210.28 175.405L197.748 175.339L190.091 165.382L198.556 153.718L211.088 153.785Z" fill="url(#paint44_linear_887_2879)"/>
<path d="M205.659 164.499L218.746 163.742L210.28 175.405L197.748 175.339L205.659 164.499Z" fill="url(#paint45_linear_887_2879)"/>
<path d="M211.088 153.785L218.745 163.742L205.658 164.499L198.556 153.718L211.088 153.785Z" fill="url(#paint46_linear_887_2879)"/>
<defs>
<linearGradient id="paint0_linear_887_2879" x1="548.308" y1="273.666" x2="17.5567" y2="340.105" gradientUnits="userSpaceOnUse">
<stop stop-color="#5F6575"/>
<stop offset="0.155732" stop-color="#0B0C0E"/>
<stop offset="0.289819" stop-color="#0A0A0C"/>
<stop offset="0.436411" stop-color="#4C505B"/>
<stop offset="0.558161" stop-color="#0E0F12"/>
<stop offset="0.89391" stop-color="#121317"/>
<stop offset="1" stop-color="#202128"/>
</linearGradient>
<linearGradient id="paint1_linear_887_2879" x1="510.669" y1="188.457" x2="39.4774" y2="354.409" gradientUnits="userSpaceOnUse">
<stop stop-color="#2B2F3B"/>
<stop offset="1" stop-color="#1C1F27"/>
</linearGradient>
<linearGradient id="paint2_linear_887_2879" x1="298.506" y1="2.28712" x2="311.433" y2="71.6277" gradientUnits="userSpaceOnUse">
<stop stop-color="#276FEC"/>
<stop offset="0.232913" stop-color="#0A32D4"/>
<stop offset="0.553518" stop-color="#3590F4"/>
<stop offset="1" stop-color="#0E35DF"/>
</linearGradient>
<linearGradient id="paint3_linear_887_2879" x1="298.961" y1="5.99541" x2="290.883" y2="73.7666" gradientUnits="userSpaceOnUse">
<stop stop-color="#95BAFF"/>
<stop offset="0.651194" stop-color="#2468EB"/>
<stop offset="1" stop-color="#348EF3"/>
</linearGradient>
<linearGradient id="paint4_linear_887_2879" x1="312.184" y1="16.894" x2="257.914" y2="58.8004" gradientUnits="userSpaceOnUse">
<stop stop-color="#2854B9"/>
<stop offset="1" stop-color="#102948"/>
</linearGradient>
<linearGradient id="paint5_linear_887_2879" x1="308.558" y1="19.4172" x2="260.75" y2="59.2555" gradientUnits="userSpaceOnUse">
<stop stop-color="#3B51F3"/>
<stop offset="1" stop-color="#25BAF1"/>
</linearGradient>
<linearGradient id="paint6_linear_887_2879" x1="518.923" y1="197.657" x2="382.442" y2="215.669" gradientUnits="userSpaceOnUse">
<stop stop-color="#434855"/>
<stop offset="0.500788" stop-color="#30333F"/>
<stop offset="0.770073" stop-color="#16171B"/>
<stop offset="1" stop-color="#15181F"/>
</linearGradient>
<linearGradient id="paint7_linear_887_2879" x1="464.099" y1="190.091" x2="502.621" y2="207.503" gradientUnits="userSpaceOnUse">
<stop stop-color="#101115"/>
<stop offset="1" stop-color="#414552"/>
</linearGradient>
<linearGradient id="paint8_linear_887_2879" x1="520.719" y1="197.119" x2="398.036" y2="208.119" gradientUnits="userSpaceOnUse">
<stop stop-color="#575C6A"/>
<stop offset="0.458549" stop-color="#13151A"/>
<stop offset="0.687019" stop-color="#5D616D"/>
<stop offset="1" stop-color="#3D414E"/>
</linearGradient>
<linearGradient id="paint9_linear_887_2879" x1="435.346" y1="148.704" x2="424.755" y2="165.994" gradientUnits="userSpaceOnUse">
<stop stop-color="#2B303D"/>
<stop offset="0.568248" stop-color="#8E8E8E"/>
<stop offset="1" stop-color="#3D414E"/>
</linearGradient>
<linearGradient id="paint10_linear_887_2879" x1="505.794" y1="180.182" x2="492.002" y2="183.37" gradientUnits="userSpaceOnUse">
<stop stop-color="#22252D"/>
<stop offset="1" stop-color="#2A2D36"/>
</linearGradient>
<linearGradient id="paint11_linear_887_2879" x1="512.75" y1="177.067" x2="493.823" y2="185.538" gradientUnits="userSpaceOnUse">
<stop stop-color="#5B6275"/>
<stop offset="1" stop-color="#2A2D36"/>
</linearGradient>
<linearGradient id="paint12_linear_887_2879" x1="408.153" y1="184.833" x2="394.36" y2="188.021" gradientUnits="userSpaceOnUse">
<stop stop-color="#22252D"/>
<stop offset="1" stop-color="#2A2D36"/>
</linearGradient>
<linearGradient id="paint13_linear_887_2879" x1="415.109" y1="181.718" x2="396.182" y2="190.189" gradientUnits="userSpaceOnUse">
<stop stop-color="#5B6275"/>
<stop offset="1" stop-color="#2A2D36"/>
</linearGradient>
<linearGradient id="paint14_linear_887_2879" x1="418.217" y1="108.559" x2="404.424" y2="111.747" gradientUnits="userSpaceOnUse">
<stop stop-color="#22252D"/>
<stop offset="1" stop-color="#2A2D36"/>
</linearGradient>
<linearGradient id="paint15_linear_887_2879" x1="425.173" y1="105.444" x2="406.246" y2="113.915" gradientUnits="userSpaceOnUse">
<stop stop-color="#5B6275"/>
<stop offset="1" stop-color="#2A2D36"/>
</linearGradient>
<linearGradient id="paint16_linear_887_2879" x1="428.881" y1="144.025" x2="427.159" y2="168.65" gradientUnits="userSpaceOnUse">
<stop stop-color="#1E222F"/>
<stop offset="1" stop-color="#0E0F12"/>
</linearGradient>
<linearGradient id="paint17_linear_887_2879" x1="350.715" y1="217.731" x2="182.158" y2="209.389" gradientUnits="userSpaceOnUse">
<stop stop-color="#404551"/>
<stop offset="0.379337" stop-color="#0E0F12"/>
<stop offset="0.731627" stop-color="#2C303B"/>
<stop offset="1" stop-color="#2F333B"/>
</linearGradient>
<linearGradient id="paint18_linear_887_2879" x1="351.521" y1="208.073" x2="181.418" y2="192.363" gradientUnits="userSpaceOnUse">
<stop stop-color="#575C6A"/>
<stop offset="0.319504" stop-color="#13151A"/>
<stop offset="0.906223" stop-color="#5D616D" stop-opacity="0.482973"/>
<stop offset="1" stop-color="#3D414E"/>
</linearGradient>
<linearGradient id="paint19_linear_887_2879" x1="322.951" y1="220.989" x2="309.65" y2="225.834" gradientUnits="userSpaceOnUse">
<stop stop-color="#22252D"/>
<stop offset="1" stop-color="#2A2D36"/>
</linearGradient>
<linearGradient id="paint20_linear_887_2879" x1="329.476" y1="217.05" x2="311.722" y2="227.764" gradientUnits="userSpaceOnUse">
<stop stop-color="#5B6275"/>
<stop offset="1" stop-color="#2A2D36"/>
</linearGradient>
<linearGradient id="paint21_linear_887_2879" x1="226.951" y1="161.989" x2="213.65" y2="166.834" gradientUnits="userSpaceOnUse">
<stop stop-color="#22252D"/>
<stop offset="1" stop-color="#2A2D36"/>
</linearGradient>
<linearGradient id="paint22_linear_887_2879" x1="233.476" y1="158.05" x2="215.722" y2="168.764" gradientUnits="userSpaceOnUse">
<stop stop-color="#5B6275"/>
<stop offset="1" stop-color="#2A2D36"/>
</linearGradient>
<linearGradient id="paint23_linear_887_2879" x1="211.547" y1="158.247" x2="286.768" y2="151.072" gradientUnits="userSpaceOnUse">
<stop stop-color="#33363F" stop-opacity="0.4818"/>
<stop offset="1" stop-color="#20232C"/>
</linearGradient>
<linearGradient id="paint24_linear_887_2879" x1="319.521" y1="200.92" x2="339.886" y2="195.781" gradientUnits="userSpaceOnUse">
<stop stop-color="#33363F" stop-opacity="0.4818"/>
<stop offset="1" stop-color="#20232C"/>
</linearGradient>
<linearGradient id="paint25_linear_887_2879" x1="187.806" y1="176.07" x2="204.206" y2="169.257" gradientUnits="userSpaceOnUse">
<stop stop-color="#33363F" stop-opacity="0.4818"/>
<stop offset="1" stop-color="#20232C"/>
</linearGradient>
<linearGradient id="paint26_linear_887_2879" x1="301.388" y1="194.963" x2="230.145" y2="171.854" gradientUnits="userSpaceOnUse">
<stop stop-color="#575C6A"/>
<stop offset="0.258998" stop-color="#252831"/>
<stop offset="0.669111" stop-color="#5D616D" stop-opacity="0.482973"/>
<stop offset="1" stop-color="#232734"/>
</linearGradient>
<linearGradient id="paint27_linear_887_2879" x1="248.503" y1="186.413" x2="250.357" y2="200.091" gradientUnits="userSpaceOnUse">
<stop stop-color="#282E3B"/>
<stop offset="1" stop-color="#0E0F12"/>
</linearGradient>
<linearGradient id="paint28_linear_887_2879" x1="294.619" y1="193.722" x2="236.252" y2="167.651" gradientUnits="userSpaceOnUse">
<stop stop-color="#262A35"/>
<stop offset="1" stop-color="#181B27"/>
</linearGradient>
<linearGradient id="paint29_linear_887_2879" x1="289.619" y1="209.722" x2="231.252" y2="183.651" gradientUnits="userSpaceOnUse">
<stop stop-color="#262A35"/>
<stop offset="1" stop-color="#181B27"/>
</linearGradient>
<linearGradient id="paint30_linear_887_2879" x1="196.547" y1="290.932" x2="59.311" y2="301.777" gradientUnits="userSpaceOnUse">
<stop stop-color="#434855"/>
<stop offset="0.500788" stop-color="#30333F"/>
<stop offset="0.770073" stop-color="#16171B"/>
<stop offset="1" stop-color="#15181F"/>
</linearGradient>
<linearGradient id="paint31_linear_887_2879" x1="142.194" y1="280.507" x2="179.752" y2="299.911" gradientUnits="userSpaceOnUse">
<stop stop-color="#101115"/>
<stop offset="1" stop-color="#414552"/>
</linearGradient>
<linearGradient id="paint32_linear_887_2879" x1="198.369" y1="290.489" x2="75.2781" y2="295.053" gradientUnits="userSpaceOnUse">
<stop stop-color="#575C6A"/>
<stop offset="0.458549" stop-color="#13151A"/>
<stop offset="0.687019" stop-color="#5D616D"/>
<stop offset="1" stop-color="#3D414E"/>
</linearGradient>
<linearGradient id="paint33_linear_887_2879" x1="115.647" y1="237.672" x2="104.165" y2="254.384" gradientUnits="userSpaceOnUse">
<stop stop-color="#2B303D"/>
<stop offset="0.568248" stop-color="#8E8E8E"/>
<stop offset="1" stop-color="#3D414E"/>
</linearGradient>
<linearGradient id="paint34_linear_887_2879" x1="184.351" y1="272.794" x2="170.411" y2="275.255" gradientUnits="userSpaceOnUse">
<stop stop-color="#22252D"/>
<stop offset="1" stop-color="#2A2D36"/>
</linearGradient>
<linearGradient id="paint35_linear_887_2879" x1="191.461" y1="270.047" x2="172.116" y2="277.516" gradientUnits="userSpaceOnUse">
<stop stop-color="#5B6275"/>
<stop offset="1" stop-color="#2A2D36"/>
</linearGradient>
<linearGradient id="paint36_linear_887_2879" x1="86.5996" y1="272.329" x2="72.6595" y2="274.79" gradientUnits="userSpaceOnUse">
<stop stop-color="#22252D"/>
<stop offset="1" stop-color="#2A2D36"/>
</linearGradient>
<linearGradient id="paint37_linear_887_2879" x1="93.7092" y1="269.582" x2="74.3649" y2="277.051" gradientUnits="userSpaceOnUse">
<stop stop-color="#5B6275"/>
<stop offset="1" stop-color="#2A2D36"/>
</linearGradient>
<linearGradient id="paint38_linear_887_2879" x1="100.642" y1="196.686" x2="86.7019" y2="199.147" gradientUnits="userSpaceOnUse">
<stop stop-color="#22252D"/>
<stop offset="1" stop-color="#2A2D36"/>
</linearGradient>
<linearGradient id="paint39_linear_887_2879" x1="107.752" y1="193.94" x2="88.4074" y2="201.408" gradientUnits="userSpaceOnUse">
<stop stop-color="#5B6275"/>
<stop offset="1" stop-color="#2A2D36"/>
</linearGradient>
<linearGradient id="paint40_linear_887_2879" x1="109.435" y1="232.661" x2="106.427" y2="257.163" gradientUnits="userSpaceOnUse">
<stop stop-color="#1E222F"/>
<stop offset="1" stop-color="#0E0F12"/>
</linearGradient>
<linearGradient id="paint41_linear_887_2879" x1="345.501" y1="178.597" x2="354.991" y2="197.648" gradientUnits="userSpaceOnUse">
<stop stop-color="#4B5CFA"/>
<stop offset="1" stop-color="#002CD9"/>
</linearGradient>
<linearGradient id="paint42_linear_887_2879" x1="352.334" y1="184.995" x2="356.47" y2="189.59" gradientUnits="userSpaceOnUse">
<stop stop-color="#4B5CFA"/>
<stop offset="1" stop-color="#002CD9"/>
</linearGradient>
<linearGradient id="paint43_linear_887_2879" x1="337.528" y1="180.629" x2="351.71" y2="195.654" gradientUnits="userSpaceOnUse">
<stop stop-color="#19D4EE"/>
<stop offset="1" stop-color="#4B5CFA"/>
</linearGradient>
<linearGradient id="paint44_linear_887_2879" x1="209.033" y1="152.398" x2="212.904" y2="173.327" gradientUnits="userSpaceOnUse">
<stop stop-color="#4B5CFA"/>
<stop offset="1" stop-color="#002CD9"/>
</linearGradient>
<linearGradient id="paint45_linear_887_2879" x1="213.838" y1="160.432" x2="216.547" y2="165.989" gradientUnits="userSpaceOnUse">
<stop stop-color="#4B5CFA"/>
<stop offset="1" stop-color="#002CD9"/>
</linearGradient>
<linearGradient id="paint46_linear_887_2879" x1="200.809" y1="152.153" x2="210.3" y2="170.505" gradientUnits="userSpaceOnUse">
<stop stop-color="#19D4EE"/>
<stop offset="1" stop-color="#4B5CFA"/>
</linearGradient>
</defs>
</svg>
