<svg width="726" height="739" viewBox="0 0 726 739" fill="none" xmlns="http://www.w3.org/2000/svg">
<path d="M265.898 -271.634C303.556 -271.634 339.671 -256.675 366.299 -230.046C392.927 -203.418 407.887 -167.303 407.887 -129.645V-50.8412C407.887 -30.1127 403.804 -9.58729 395.871 9.56329C387.939 28.7139 376.312 46.1145 361.655 60.7717C346.998 75.4289 329.597 87.0557 310.447 94.9881C291.296 102.921 270.771 107.003 250.042 107.003H123.909V-129.645C123.909 -167.303 138.869 -203.418 165.497 -230.046C192.125 -256.675 228.24 -271.634 265.898 -271.634V-271.634Z" stroke="white" stroke-opacity="0.1" stroke-width="2.37498"/>
<path d="M108.129 -145.419C126.776 -145.419 145.239 -141.747 162.466 -134.611C179.693 -127.475 195.346 -117.017 208.531 -103.832C221.715 -90.6469 232.174 -74.9941 239.31 -57.7672C246.445 -40.5403 250.118 -22.0766 250.118 -3.43037V107.006H29.2467C12.51 107.006 -3.54133 100.357 -15.376 88.5221C-27.2107 76.6874 -33.8594 60.6361 -33.8594 43.8993V-3.43037C-33.8594 -41.0882 -18.8999 -77.2037 7.72817 -103.832C34.3562 -130.46 70.4716 -145.419 108.129 -145.419V-145.419Z" stroke="white" stroke-opacity="0.1" stroke-width="2.37498"/>
<path d="M-50.198 -19.2654C-12.5403 -19.2654 23.5751 -4.30587 50.2032 22.3222C76.8313 48.9503 91.7907 85.0658 91.7907 122.724V201.528C91.7907 222.256 87.708 242.781 79.7756 261.932C71.8432 281.083 60.2165 298.483 45.5593 313.14C30.9021 327.798 13.5015 339.424 -5.64906 347.357C-24.7996 355.289 -45.325 359.372 -66.0534 359.372H-192.187V122.724C-192.187 85.0658 -177.227 48.9503 -150.599 22.3222C-123.971 -4.30587 -87.8558 -19.2654 -50.198 -19.2654V-19.2654Z" stroke="white" stroke-opacity="0.1" stroke-width="2.37498"/>
<path d="M107.85 -145.446C145.508 -145.446 181.623 -130.486 208.251 -103.858C234.879 -77.2301 249.839 -41.1146 249.839 -3.45678V75.3471C249.839 96.0756 245.756 116.601 237.823 135.752C229.891 154.902 218.264 172.303 203.607 186.96C188.95 201.617 171.549 213.244 152.399 221.176C133.248 229.109 112.723 233.192 91.9944 233.192H-34.1389V-3.45678C-34.1389 -41.1146 -19.1794 -77.2301 7.44861 -103.858C34.0767 -130.486 70.1921 -145.446 107.85 -145.446V-145.446Z" stroke="white" stroke-opacity="0.1" stroke-width="2.37498"/>
<path d="M-49.9185 -19.2311C-31.2723 -19.2311 -12.8087 -15.5584 4.41822 -8.4228C21.6451 -1.28719 37.2978 9.17163 50.4827 22.3565C63.6676 35.5414 74.1264 51.1942 81.262 68.4211C88.3976 85.648 92.0702 104.112 92.0702 122.758V233.194H-128.801C-145.538 233.194 -161.589 226.545 -173.424 214.71C-185.259 202.876 -191.907 186.824 -191.907 170.088V122.758C-191.907 85.1001 -176.948 48.9846 -150.32 22.3565C-123.692 -4.27158 -87.5763 -19.2311 -49.9185 -19.2311V-19.2311Z" stroke="white" stroke-opacity="0.1" stroke-width="2.37498"/>
<path d="M-83.8238 358.459C-46.166 358.459 -10.0506 373.418 16.5774 400.046C43.2055 426.674 58.1649 462.79 58.1649 500.448V579.252C58.1649 599.98 54.0822 620.505 46.1498 639.656C38.2174 658.807 26.5907 676.207 11.9335 690.864C-2.72371 705.522 -20.1243 717.148 -39.2749 725.081C-58.4254 733.013 -78.9508 737.096 -99.6792 737.096H-225.813V500.448C-225.813 462.79 -210.853 426.674 -184.225 400.046C-157.597 373.418 -121.482 358.459 -83.8238 358.459V358.459Z" stroke="white" stroke-opacity="0.1" stroke-width="2.37498"/>
<path d="M390.311 -20.2369C427.968 -20.2369 464.084 -5.27736 490.712 21.3507C517.34 47.9789 532.299 84.0943 532.299 121.752V200.556C532.299 221.284 528.217 241.81 520.284 260.961C512.352 280.111 500.725 297.512 486.068 312.169C471.411 326.826 454.01 338.453 434.86 346.385C415.709 354.318 395.184 358.401 374.455 358.401H248.322V121.752C248.322 84.0943 263.281 47.9789 289.909 21.3507C316.538 -5.27736 352.653 -20.2369 390.311 -20.2369V-20.2369Z" stroke="white" stroke-opacity="0.1" stroke-width="2.37498"/>
<path d="M232.542 105.978C251.189 105.978 269.652 109.65 286.879 116.786C304.106 123.922 319.759 134.381 332.944 147.565C346.128 160.75 356.587 176.403 363.723 193.63C370.858 210.857 374.531 229.321 374.531 247.967V358.403H153.66C136.923 358.403 120.872 351.754 109.037 339.919C97.2022 328.085 90.5536 312.033 90.5536 295.296V247.967C90.5536 210.309 105.513 174.194 132.141 147.565C158.769 120.937 194.885 105.978 232.542 105.978V105.978Z" stroke="white" stroke-opacity="0.1" stroke-width="2.37498"/>
</svg>
