<svg width="1003" height="856" viewBox="0 0 1003 856" fill="none" xmlns="http://www.w3.org/2000/svg">
<path d="M301.757 632.913C339.414 632.913 375.53 647.872 402.158 674.501C428.786 701.129 443.745 737.244 443.745 774.902V853.706C443.745 874.434 439.663 894.96 431.73 914.11C423.798 933.261 412.171 950.662 397.514 965.319C382.857 979.976 365.456 991.603 346.306 999.535C327.155 1007.47 306.63 1011.55 285.901 1011.55H159.768V774.902C159.768 737.244 174.727 701.129 201.355 674.501C227.983 647.872 264.099 632.913 301.757 632.913V632.913Z" stroke="white" stroke-opacity="0.1" stroke-width="2.37498"/>
<path d="M143.989 759.128C162.635 759.128 181.098 762.8 198.325 769.936C215.552 777.072 231.205 787.53 244.39 800.715C257.575 813.9 268.033 829.553 275.169 846.78C282.305 864.007 285.977 882.47 285.977 901.117V1011.55H65.106C48.3692 1011.55 32.3179 1004.9 20.4832 993.069C8.64851 981.234 1.99985 965.183 1.99985 948.446V901.117C1.99985 863.459 16.9593 827.343 43.5874 800.715C70.2154 774.087 106.331 759.128 143.989 759.128V759.128Z" stroke="white" stroke-opacity="0.1" stroke-width="2.37498"/>
<path d="M775.898 254.366C813.556 254.366 849.671 269.325 876.299 295.954C902.927 322.582 917.887 358.697 917.887 396.355V475.159C917.887 495.887 913.804 516.413 905.871 535.563C897.939 554.714 886.312 572.115 871.655 586.772C856.998 601.429 839.597 613.056 820.447 620.988C801.296 628.921 780.771 633.003 760.042 633.003H633.909V396.355C633.909 358.697 648.869 322.582 675.497 295.954C702.125 269.325 738.24 254.366 775.898 254.366V254.366Z" stroke="white" stroke-opacity="0.1" stroke-width="2.37498"/>
<path d="M618.129 380.581C636.776 380.581 655.239 384.253 672.466 391.389C689.693 398.525 705.346 408.983 718.531 422.168C731.715 435.353 742.174 451.006 749.31 468.233C756.445 485.46 760.118 503.923 760.118 522.57V633.006H539.247C522.51 633.006 506.459 626.357 494.624 614.522C482.789 602.687 476.141 586.636 476.141 569.899V522.57C476.141 484.912 491.1 448.796 517.728 422.168C544.356 395.54 580.472 380.581 618.129 380.581V380.581Z" stroke="white" stroke-opacity="0.1" stroke-width="2.37498"/>
<path d="M459.802 506.735C497.46 506.735 533.575 521.694 560.203 548.322C586.831 574.95 601.791 611.066 601.791 648.724V727.528C601.791 748.256 597.708 768.781 589.776 787.932C581.843 807.083 570.216 824.483 555.559 839.14C540.902 853.798 523.501 865.424 504.351 873.357C485.2 881.289 464.675 885.372 443.947 885.372H317.813V648.724C317.813 611.066 332.773 574.95 359.401 548.322C386.029 521.694 422.144 506.735 459.802 506.735V506.735Z" stroke="white" stroke-opacity="0.1" stroke-width="2.37498"/>
<path d="M302.034 632.945C320.68 632.945 339.143 636.617 356.37 643.753C373.597 650.889 389.25 661.347 402.435 674.532C415.62 687.717 426.078 703.37 433.214 720.597C440.35 737.824 444.022 756.288 444.022 774.934V885.37H223.151C206.414 885.37 190.363 878.721 178.528 866.886C166.693 855.052 160.045 839 160.045 822.263V774.934C160.045 737.276 175.004 701.161 201.632 674.532C228.26 647.904 264.376 632.945 302.034 632.945V632.945Z" stroke="white" stroke-opacity="0.1" stroke-width="2.37498"/>
<path d="M933.944 128.183C971.602 128.183 1007.72 143.142 1034.35 169.77C1060.97 196.398 1075.93 232.514 1075.93 270.172V348.976C1075.93 369.704 1071.85 390.23 1063.92 409.38C1055.99 428.531 1044.36 445.931 1029.7 460.589C1015.04 475.246 997.644 486.873 978.493 494.805C959.342 502.737 938.817 506.82 918.089 506.82H791.955V270.172C791.955 232.514 806.915 196.398 833.543 169.77C860.171 143.142 896.286 128.183 933.944 128.183V128.183Z" stroke="white" stroke-opacity="0.1" stroke-width="2.37498"/>
<path d="M776.176 254.397C794.822 254.397 813.286 258.07 830.513 265.206C847.74 272.341 863.392 282.8 876.577 295.985C889.762 309.17 900.221 324.823 907.357 342.05C914.492 359.277 918.165 377.74 918.165 396.386V506.822H697.293C680.557 506.822 664.505 500.174 652.671 488.339C640.836 476.504 634.187 460.453 634.187 443.716V396.386C634.187 358.729 649.147 322.613 675.775 295.985C702.403 269.357 738.518 254.397 776.176 254.397V254.397Z" stroke="white" stroke-opacity="0.1" stroke-width="2.37498"/>
<path d="M617.85 380.554C655.508 380.554 691.623 395.514 718.251 422.142C744.879 448.77 759.839 484.885 759.839 522.543V601.347C759.839 622.076 755.756 642.601 747.823 661.752C739.891 680.902 728.264 698.303 713.607 712.96C698.95 727.617 681.549 739.244 662.399 747.176C643.248 755.109 622.723 759.192 601.994 759.192H475.861V522.543C475.861 484.885 490.821 448.77 517.449 422.142C544.077 395.514 580.192 380.554 617.85 380.554V380.554Z" stroke="white" stroke-opacity="0.1" stroke-width="2.37498"/>
<path d="M460.081 506.769C478.728 506.769 497.191 510.442 514.418 517.577C531.645 524.713 547.298 535.172 560.483 548.357C573.668 561.541 584.126 577.194 591.262 594.421C598.398 611.648 602.07 630.112 602.07 648.758V759.194H381.199C364.462 759.194 348.411 752.545 336.576 740.71C324.741 728.876 318.093 712.824 318.093 696.088V648.758C318.093 611.1 333.052 574.985 359.68 548.357C386.308 521.728 422.424 506.769 460.081 506.769V506.769Z" stroke="white" stroke-opacity="0.1" stroke-width="2.37498"/>
<path d="M1091.99 1.99997C1129.65 1.99997 1165.76 16.9595 1192.39 43.5876C1219.02 70.2157 1233.98 106.331 1233.98 143.989V222.793C1233.98 243.521 1229.9 264.047 1221.96 283.197C1214.03 302.348 1202.41 319.749 1187.75 334.406C1173.09 349.063 1155.69 360.69 1136.54 368.622C1117.39 376.555 1096.86 380.637 1076.14 380.637H950.002V143.989C950.002 106.331 964.962 70.2157 991.59 43.5876C1018.22 16.9595 1054.33 1.99997 1091.99 1.99997V1.99997Z" stroke="white" stroke-opacity="0.1" stroke-width="2.37498"/>
<path d="M934.224 128.215C952.87 128.215 971.333 131.887 988.56 139.023C1005.79 146.159 1021.44 156.617 1034.62 169.802C1047.81 182.987 1058.27 198.64 1065.4 215.867C1072.54 233.094 1076.21 251.557 1076.21 270.204V380.64H855.341C838.604 380.64 822.553 373.991 810.718 362.156C798.883 350.321 792.235 334.27 792.235 317.533V270.204C792.235 232.546 807.194 196.43 833.822 169.802C860.45 143.174 896.566 128.215 934.224 128.215V128.215Z" stroke="white" stroke-opacity="0.1" stroke-width="2.37498"/>
<path d="M900.311 505.763C937.968 505.763 974.084 520.723 1000.71 547.351C1027.34 573.979 1042.3 610.094 1042.3 647.752V726.556C1042.3 747.284 1038.22 767.81 1030.28 786.96C1022.35 806.111 1010.73 823.512 996.068 838.169C981.411 852.826 964.01 864.453 944.86 872.385C925.709 880.318 905.184 884.4 884.455 884.4H758.322V647.752C758.322 610.094 773.281 573.979 799.909 547.351C826.538 520.723 862.653 505.763 900.311 505.763V505.763Z" stroke="white" stroke-opacity="0.1" stroke-width="2.37498"/>
<path d="M742.542 631.978C761.189 631.978 779.652 635.65 796.879 642.786C814.106 649.922 829.759 660.381 842.944 673.565C856.128 686.75 866.587 702.403 873.723 719.63C880.858 736.857 884.531 755.321 884.531 773.967V884.403H663.66C646.923 884.403 630.872 877.754 619.037 865.919C607.202 854.085 600.554 838.033 600.554 821.296V773.967C600.554 736.309 615.513 700.194 642.141 673.565C668.769 646.937 704.885 631.978 742.542 631.978V631.978Z" stroke="white" stroke-opacity="0.1" stroke-width="2.37498"/>
</svg>
