<?xml version="1.0" standalone="no"?>
<!DOCTYPE svg PUBLIC "-//W3C//DTD SVG 20010904//EN"
 "http://www.w3.org/TR/2001/REC-SVG-20010904/DTD/svg10.dtd">
<svg version="1.0" xmlns="http://www.w3.org/2000/svg"
 width="721.000000pt" height="721.000000pt" viewBox="0 0 721.000000 721.000000"
 preserveAspectRatio="xMidYMid meet">
<metadata>
Created by potrace 1.14, written by Peter Selinger 2001-2017
</metadata>
<g transform="translate(0.000000,721.000000) scale(0.100000,-0.100000)"
fill="#000000" stroke="none">
<path d="M4688 6605 c-2 -1 -39 -5 -83 -9 -163 -14 -403 -74 -586 -146 -403
-160 -782 -463 -1014 -810 -27 -41 -53 -76 -57 -78 -5 -2 -8 -7 -8 -12 0 -5
-19 -41 -43 -82 -120 -205 -226 -505 -263 -743 -4 -27 -8 -54 -9 -60 -1 -5 -3
-23 -3 -38 l-2 -28 -102 7 c-153 10 -385 5 -448 -11 -8 -2 -35 -7 -60 -10 -25
-3 -52 -8 -60 -10 -8 -2 -31 -7 -50 -10 -77 -13 -282 -73 -355 -105 -11 -5
-45 -19 -75 -31 -389 -160 -764 -479 -1007 -859 -131 -204 -254 -503 -297
-720 -8 -43 -25 -134 -31 -165 -20 -116 -29 -1107 -11 -1215 64 -387 336 -701
702 -808 152 -45 21 -43 2799 -44 539 0 1026 3 1083 6 124 7 212 15 232 21 8
2 38 7 65 10 103 13 391 90 470 125 11 5 43 18 72 29 268 103 585 315 816 546
85 85 219 243 267 315 8 12 26 39 40 59 72 101 163 269 223 411 43 101 111
300 120 351 3 13 12 56 21 94 22 90 24 100 31 160 4 28 8 61 11 75 14 85 17
284 17 930 0 657 -3 800 -19 910 -12 83 -45 249 -59 295 -8 28 -15 53 -15 57
-1 16 -69 197 -103 274 -127 286 -340 571 -577 772 -30 26 -64 55 -75 65 -31
29 -244 170 -319 212 -320 179 -690 272 -1083 273 -83 0 -153 -1 -155 -3z"/>
</g>
</svg>
