<svg width="776" height="2266" xmlns="http://www.w3.org/2000/svg" xmlns:xlink="http://www.w3.org/1999/xlink" viewBox="0.00 0.00 557.1 182.8">
<g id="graph0" class="graph" transform="translate(4.0000073242187,178.8000030517578) scale(1)">
<title>IAMOps</title>
<polygon fill="white" stroke="transparent" points="-4,4 -4,-178.8 553.1,-178.8 553.1,4 -4,4"/>
<text text-anchor="middle" x="274.55" y="-8.2" font-family="Times,serif" font-size="14.00">IAMOps: User Journeys</text>
<!-- Request -->
<g id="node1" class="node">
<title>Request</title>
<polygon fill="none" stroke="black" points="278.31,-108.8 229.11,-108.8 229.11,-84.8 278.31,-84.8 290.31,-96.8 278.31,-108.8"/>
<text text-anchor="middle" x="259.71" y="-92.6" font-family="Times,serif" font-size="14.00">Request</text>
</g>
<!-- Grant -->
<g id="node2" class="node">
<title>Grant</title>
<polygon fill="none" stroke="black" points="537.1,-122.8 495.1,-122.8 495.1,-98.8 537.1,-98.8 549.1,-110.8 537.1,-122.8"/>
<text text-anchor="middle" x="522.1" y="-106.6" font-family="Times,serif" font-size="14.00">Grant</text>
</g>
<!-- Request&#45;&gt;Grant -->
<g id="edge1" class="edge">
<title style="">Request-&gt;Grant</title>
<path fill="none" stroke="black" d="M290.33,-98.39C338.34,-100.97 433.01,-106.06 484.92,-108.86"/>
<polygon fill="black" stroke="black" points="484.84,-112.36 495.02,-109.4 485.22,-105.37 484.84,-112.36"/>
</g>
<!-- Delegate -->
<g id="node6" class="node">
<title>Delegate</title>
<polygon fill="none" stroke="black" points="380.88,-76.8 327.39,-76.8 327.39,-52.8 380.88,-52.8 392.88,-64.8 380.88,-76.8"/>
<text text-anchor="middle" x="360.13" y="-60.6" font-family="Times,serif" font-size="14.00">Delegate</text>
</g>
<!-- Request&#45;&gt;Delegate -->
<g id="edge6" class="edge">
<title>Request:se-&gt;Delegate:w</title>
<path fill="none" stroke="black" d="M278.71,-78.8C291.98,-65.53 301.3,-64.66 317.12,-64.73"/>
<polygon fill="black" stroke="black" points="317.24,-68.24 327.26,-64.8 317.28,-61.24 317.24,-68.24"/>
</g>
<!-- Develop -->
<g id="node3" class="node">
<title>Develop</title>
<polygon fill="none" stroke="black" points="174.78,-162.8 122.92,-162.8 122.92,-138.8 174.78,-138.8 186.78,-150.8 174.78,-162.8"/>
<text text-anchor="middle" x="154.85" y="-146.6" font-family="Times,serif" font-size="14.00">Develop</text>
</g>
<!-- Develop&#45;&gt;Request -->
<g id="edge3" class="edge">
<title>Develop:e-&gt;Request:nw</title>
<path fill="none" stroke="black" d="M187.85,-150.8C212.72,-150.8 219.15,-138.63 233.83,-122.12"/>
<polygon fill="black" stroke="black" points="236.41,-124.48 240.71,-114.8 231.31,-119.69 236.41,-124.48"/>
</g>
<!-- Restrict -->
<g id="node4" class="node">
<title>Restrict</title>
<polygon fill="none" stroke="black" points="172.39,-108.8 125.3,-108.8 125.3,-84.8 172.39,-84.8 184.39,-96.8 172.39,-108.8"/>
<text text-anchor="middle" x="154.85" y="-92.6" font-family="Times,serif" font-size="14.00">Restrict</text>
</g>
<!-- Restrict&#45;&gt;Request -->
<g id="edge2" class="edge">
<title>Restrict-&gt;Request</title>
<path fill="none" stroke="black" d="M184.5,-96.8C195.15,-96.8 207.43,-96.8 218.9,-96.8"/>
<polygon fill="black" stroke="black" points="219.14,-100.3 229.14,-96.8 219.14,-93.3 219.14,-100.3"/>
</g>
<!-- Understand -->
<g id="node5" class="node">
<title>Understand</title>
<polygon fill="none" stroke="black" points="68.31,-108.8 0.23,-108.8 0.23,-84.8 68.31,-84.8 80.31,-96.8 68.31,-108.8"/>
<text text-anchor="middle" x="40.27" y="-92.6" font-family="Times,serif" font-size="14.00">Understand</text>
</g>
<!-- Understand&#45;&gt;Develop -->
<g id="edge5" class="edge">
<title>Understand:ne-&gt;Develop:w</title>
<path fill="none" stroke="black" d="M57.27,-114.8C77.87,-135.4 86.88,-147.77 111.56,-150.31"/>
<polygon fill="black" stroke="black" points="111.69,-153.82 121.85,-150.8 112.03,-146.83 111.69,-153.82"/>
</g>
<!-- Understand&#45;&gt;Restrict -->
<g id="edge4" class="edge">
<title>Understand-&gt;Restrict</title>
<path fill="none" stroke="black" d="M80.33,-96.8C91.49,-96.8 103.66,-96.8 114.82,-96.8"/>
<polygon fill="black" stroke="black" points="115.15,-100.3 125.15,-96.8 115.15,-93.3 115.15,-100.3"/>
</g>
<!-- Search -->
<g id="node8" class="node">
<title>Search</title>
<ellipse fill="none" stroke="black" cx="154.85" cy="-42.8" rx="37.12" ry="18"/>
<text text-anchor="middle" x="154.85" y="-38.6" font-family="Times,serif" font-size="14.00">Search</text>
</g>
<!-- Understand&#45;&gt;Search -->
<g id="edge9" class="edge">
<title>Understand:se-&gt;Search:w</title>
<path fill="none" stroke="black" d="M59.27,-78.8C78.19,-59.88 85.35,-46.41 107.47,-43.42"/>
<polygon fill="black" stroke="black" points="107.77,-46.91 117.54,-42.8 107.34,-39.93 107.77,-46.91"/>
</g>
<!-- Delegate&#45;&gt;Grant -->
<g id="edge7" class="edge">
<title>Delegate:e-&gt;Grant:sw</title>
<path fill="none" stroke="black" d="M393.01,-64.8C440.75,-64.8 465.22,-57.62 497.6,-85.78"/>
<polygon fill="black" stroke="black" points="495.4,-88.52 505.1,-92.8 500.19,-83.41 495.4,-88.52"/>
</g>
<!-- Respond -->
<g id="node7" class="node">
<title>Respond</title>
<polygon fill="none" stroke="black" points="380.63,-168.8 327.63,-168.8 327.63,-144.8 380.63,-144.8 392.63,-156.8 380.63,-168.8"/>
<text text-anchor="middle" x="360.13" y="-152.6" font-family="Times,serif" font-size="14.00">Respond</text>
</g>
<!-- Respond&#45;&gt;Grant -->
<g id="edge8" class="edge">
<title>Respond:e-&gt;Grant:nw</title>
<path fill="none" stroke="black" d="M393.01,-156.8C439.94,-156.8 463.9,-163.45 495.73,-135.7"/>
<polygon fill="black" stroke="black" points="498.19,-138.19 503.1,-128.8 493.41,-133.08 498.19,-138.19"/>
<text text-anchor="middle" x="444.05" y="-161" font-family="Times,serif" font-size="14.00">Break-glass</text>
</g>
<!-- Search&#45;&gt;Request -->
<g id="edge10" class="edge">
<title>Search:e-&gt;Request:sw</title>
<path fill="none" stroke="black" d="M192.16,-42.8C216.08,-42.8 221.86,-55.21 235.69,-71.22"/>
<polygon fill="black" stroke="black" points="233.35,-73.84 242.71,-78.8 238.49,-69.08 233.35,-73.84"/>
</g>
</g>
</svg>