<svg width="16" height="20" viewBox="0 0 16 20" fill="none" xmlns="http://www.w3.org/2000/svg">
<path d="M8 0.833374L14.8474 2.35502C15.2287 2.43976 15.5 2.77793 15.5 3.16852V11.4908C15.5 13.1625 14.6645 14.7237 13.2735 15.651L8 19.1667L2.7265 15.651C1.33551 14.7237 0.5 13.1625 0.5 11.4908V3.16852C0.5 2.77793 0.771275 2.43976 1.15256 2.35502L8 0.833374ZM8 2.5407L2.16667 3.83699V11.4908C2.16667 12.6053 2.72367 13.646 3.651 14.2643L8 17.1636L12.349 14.2643C13.2763 13.646 13.8333 12.6053 13.8333 11.4908V3.83699L8 2.5407ZM8 5.83337C8.9205 5.83337 9.66667 6.57957 9.66667 7.50004C9.66667 8.11657 9.33192 8.65487 8.83425 8.94321L8.83333 12.5H7.16667L7.16658 8.94371C6.6685 8.65554 6.33333 8.11692 6.33333 7.50004C6.33333 6.57957 7.0795 5.83337 8 5.83337Z" fill="#878A96"/>
</svg>
