<svg width="16" height="16" viewBox="0 0 16 16" fill="none" xmlns="http://www.w3.org/2000/svg">
<path fill-rule="evenodd" clip-rule="evenodd" d="M6.7499 3.90002C5.45203 3.90002 4.3999 4.95216 4.3999 6.25002C4.3999 7.54789 5.45203 8.60002 6.7499 8.60002C8.04777 8.60002 9.0999 7.54789 9.0999 6.25002C9.0999 4.95216 8.04777 3.90002 6.7499 3.90002ZM5.5999 6.25002C5.5999 5.6149 6.11477 5.10002 6.7499 5.10002C7.38503 5.10002 7.8999 5.6149 7.8999 6.25002C7.8999 6.88515 7.38503 7.40002 6.7499 7.40002C6.11477 7.40002 5.5999 6.88515 5.5999 6.25002Z" fill="#CACBD0"/>
<path d="M9.8999 6.00002C9.8999 5.66865 10.1685 5.40002 10.4999 5.40002H11.4999C11.8313 5.40002 12.0999 5.66865 12.0999 6.00002C12.0999 6.3314 11.8313 6.60002 11.4999 6.60002H10.4999C10.1685 6.60002 9.8999 6.3314 9.8999 6.00002Z" fill="#CACBD0"/>
<path d="M10.4999 7.40002C10.1685 7.40002 9.8999 7.66865 9.8999 8.00002C9.8999 8.3314 10.1685 8.60002 10.4999 8.60002H11.4999C11.8313 8.60002 12.0999 8.3314 12.0999 8.00002C12.0999 7.66865 11.8313 7.40002 11.4999 7.40002H10.4999Z" fill="#CACBD0"/>
<path fill-rule="evenodd" clip-rule="evenodd" d="M1.3999 7.00002C1.3999 3.90723 3.90711 1.40002 6.9999 1.40002H8.9999C12.0927 1.40002 14.5999 3.90723 14.5999 7.00002V9.00002C14.5999 12.0928 12.0927 14.6 8.9999 14.6H6.9999C3.90711 14.6 1.3999 12.0928 1.3999 9.00002V7.00002ZM6.9999 2.60002C4.56985 2.60002 2.5999 4.56997 2.5999 7.00002V9.00002C2.5999 9.63037 2.73245 10.2298 2.9712 10.7718C4.08561 9.91201 5.4835 9.40002 6.99983 9.40002C8.99259 9.40002 10.7796 10.2839 11.9888 11.679L11.997 11.6884L12.2329 11.9846C12.9573 11.2003 13.3999 10.1519 13.3999 9.00002V7.00002C13.3999 4.56997 11.43 2.60002 8.9999 2.60002H6.9999ZM6.9999 13.4C5.6335 13.4 4.41257 12.7772 3.60554 11.7999C4.5332 11.0492 5.71346 10.6 6.99983 10.6C8.62569 10.6 10.0832 11.3178 11.0741 12.4558L11.3066 12.7477C10.6359 13.1613 9.84576 13.4 8.9999 13.4H6.9999Z" fill="#CACBD0"/>
</svg>
