<svg width="16" height="16" viewBox="0 0 16 16" fill="none" xmlns="http://www.w3.org/2000/svg">
<path fill-rule="evenodd" clip-rule="evenodd" d="M8.5999 3.00002C8.5999 2.66865 8.33127 2.40002 7.9999 2.40002C7.66853 2.40002 7.3999 2.66865 7.3999 3.00002V7.40002H2.9999C2.66853 7.40002 2.3999 7.66865 2.3999 8.00002C2.3999 8.3314 2.66853 8.60002 2.9999 8.60002H7.3999V13C7.3999 13.3314 7.66853 13.6 7.9999 13.6C8.33127 13.6 8.5999 13.3314 8.5999 13V8.60002H12.9999C13.3313 8.60002 13.5999 8.3314 13.5999 8.00002C13.5999 7.66865 13.3313 7.40002 12.9999 7.40002H8.5999V3.00002Z" fill="#CACBD0"/>
</svg>
