<svg width="16" height="16" viewBox="0 0 16 16" fill="none" xmlns="http://www.w3.org/2000/svg">
<path fill-rule="evenodd" clip-rule="evenodd" d="M13.3211 5.50701C13.3577 5.48379 13.3923 5.45621 13.4242 5.42428C13.4561 5.39235 13.4837 5.35772 13.507 5.32112L14.7167 4.11133C15.3416 3.48649 15.3416 2.47342 14.7167 1.84858L14.1511 1.2829C13.5262 0.65806 12.5132 0.65806 11.8883 1.2829L10.6771 2.49416C10.6411 2.51715 10.6071 2.54434 10.5757 2.57575C10.5443 2.60716 10.5171 2.64118 10.4941 2.67712L6.68502 6.4862C6.55374 6.61748 6.47999 6.79552 6.47999 6.98117V8.81965C6.47999 9.20625 6.79339 9.51965 7.17999 9.51965H9.01847C9.20412 9.51965 9.38217 9.4459 9.51344 9.31463L13.3211 5.50701ZM7.67999 8.31965V7.18828L11.0098 3.85843L12.1412 4.9898L8.81136 8.31965H7.67999ZM11.8584 3.0099L12.7368 2.13143C12.8931 1.97522 13.1463 1.97522 13.3025 2.13143L13.8682 2.69711C14.0244 2.85332 14.0244 3.10659 13.8682 3.2628L12.9897 4.14127L11.8584 3.0099Z" fill="#CACBD0"/>
<path d="M5.8982 3.11352C5.8982 2.16641 6.66675 1.40002 7.61326 1.40002H8.37728C8.70865 1.40002 8.97728 1.66864 8.97728 2.00002C8.97728 2.33139 8.70865 2.60002 8.37728 2.60002H7.61326C7.32796 2.60002 7.0982 2.83068 7.0982 3.11352V3.22456C7.0982 3.84613 6.78989 4.42699 6.27552 4.77584C5.67955 5.18003 4.90463 5.20782 4.2812 4.84745L4.16798 4.782C3.92029 4.63882 3.59534 4.72374 3.44729 4.9793C3.38632 5.08453 3.32222 5.19464 3.25594 5.30777C3.18959 5.42101 3.1256 5.53095 3.06495 5.63567C2.93172 5.86573 3.00907 6.16507 3.24992 6.30387L3.33626 6.35362C3.92478 6.69278 4.2878 7.32004 4.2878 7.99937C4.2878 8.67768 3.92587 9.30415 3.33874 9.64368L3.2554 9.69188C3.01652 9.83002 2.93542 10.1335 3.07159 10.3709L3.26229 10.7031C3.32069 10.8028 3.3774 10.9002 3.43176 10.9939C3.59155 11.2694 3.94201 11.3612 4.20958 11.2065L4.36727 11.1154C4.93567 10.7869 5.63683 10.7884 6.2038 11.1194C6.76414 11.4465 7.10901 12.0462 7.10901 12.6951V12.8625C7.10901 13.1585 7.34957 13.4 7.64823 13.4H8.38905C8.68935 13.4 8.93125 13.1572 8.93125 12.8595V12.6919C8.93125 12.0458 9.27287 11.4481 9.82909 11.1195C10.3979 10.7834 11.1039 10.7801 11.6759 11.1107L11.8336 11.2019C12.1009 11.3564 12.4435 11.2637 12.5966 10.9957C12.7025 10.8105 12.8144 10.6148 12.9244 10.4228C13.0799 10.1517 12.9869 9.80645 12.7195 9.65099L12.5517 9.55342C12.2652 9.38686 12.168 9.01961 12.3345 8.73314C12.5011 8.44667 12.8683 8.34946 13.1548 8.51602L13.3226 8.61359C14.1638 9.10262 14.4473 10.1792 13.9655 11.0196C13.8558 11.211 13.7442 11.4061 13.6386 11.591C13.1558 12.4362 12.0765 12.7284 11.2331 12.2408L11.0753 12.1496C10.8785 12.0358 10.6353 12.037 10.4395 12.1526C10.2482 12.2657 10.1312 12.4708 10.1312 12.6919V12.8595C10.1312 13.8216 9.35047 14.6 8.38905 14.6H7.64823C6.68848 14.6 5.90901 13.8229 5.90901 12.8625V12.6951C5.90901 12.4735 5.79122 12.268 5.59885 12.1558C5.40406 12.0421 5.163 12.0415 4.96772 12.1544L4.81003 12.2455C3.96069 12.7364 2.88066 12.4355 2.39372 11.5959C2.33975 11.5029 2.28347 11.4063 2.22556 11.3074L2.22287 11.3028L2.03086 10.9683C1.56469 10.1559 1.84494 9.12133 2.65466 8.65307L2.73801 8.60487C2.95479 8.47951 3.0878 8.24865 3.0878 7.99937C3.0878 7.74971 2.95439 7.51856 2.73709 7.39334L2.65075 7.34358C1.84495 6.87921 1.55481 5.84878 2.02653 5.03427C2.08809 4.92798 2.1531 4.81629 2.22056 4.70115C2.28576 4.58987 2.34887 4.48146 2.40895 4.37776C2.88411 3.55757 3.93905 3.2636 4.76852 3.74308L4.88174 3.80853C5.10687 3.93867 5.38684 3.92859 5.60196 3.7827C5.78748 3.65688 5.8982 3.44778 5.8982 3.22456V3.11352Z" fill="#CACBD0"/>
</svg>
