<svg width="16" height="16" viewBox="0 0 16 16" fill="none" xmlns="http://www.w3.org/2000/svg">
<path fill-rule="evenodd" clip-rule="evenodd" d="M2.5999 5.00002C2.5999 3.67454 3.67442 2.60002 4.9999 2.60002H10.9999C12.3254 2.60002 13.3999 3.67454 13.3999 5.00002V11C13.3999 12.3255 12.3254 13.4 10.9999 13.4H4.9999C3.67442 13.4 2.5999 12.3255 2.5999 11V5.00002ZM4.9999 1.40002C3.01168 1.40002 1.3999 3.0118 1.3999 5.00002V11C1.3999 12.9882 3.01168 14.6 4.9999 14.6H10.9999C12.9881 14.6 14.5999 12.9882 14.5999 11V5.00002C14.5999 3.0118 12.9881 1.40002 10.9999 1.40002H4.9999ZM11.1022 4.0145C11.4263 4.08367 11.6329 4.40245 11.5638 4.72652L11.0549 7.11065C11.0153 7.2962 10.8903 7.45208 10.7178 7.53101L9.31667 8.17207L10.7587 8.97021C10.9016 9.04931 11.0061 9.18326 11.048 9.34114L11.5569 11.2569C11.6419 11.5772 11.4513 11.9058 11.131 11.9908C10.8107 12.0759 10.4822 11.8852 10.3971 11.565L9.95388 9.8963L8.26739 8.96286L7.4407 10.8166C7.34424 11.0329 7.12956 11.1723 6.89272 11.1723H4.82644C4.49507 11.1723 4.22644 10.9036 4.22644 10.5723C4.22644 10.2409 4.49507 9.97225 4.82644 9.97225H6.50333L7.34539 8.08403L6.729 6.11574L4.94728 5.32063C4.64468 5.18558 4.50884 4.8308 4.64388 4.52819C4.77892 4.22559 5.13371 4.08975 5.43631 4.22479L7.4652 5.13021C7.62236 5.20034 7.74184 5.33459 7.79327 5.49882L8.35496 7.29246L9.94429 6.56527L10.3902 4.47604C10.4594 4.15197 10.7781 3.94533 11.1022 4.0145Z" fill="#CACBD0"/>
</svg>
