<svg width="16" height="16" viewBox="0 0 16 16" fill="none" xmlns="http://www.w3.org/2000/svg">
<path fill-rule="evenodd" clip-rule="evenodd" d="M11.2667 2.00002C11.2667 1.66865 10.998 1.40002 10.6667 1.40002C10.3353 1.40002 10.0667 1.66865 10.0667 2.00002V2.73004H5.93315V2.00002C5.93315 1.66865 5.66453 1.40002 5.33315 1.40002C5.00178 1.40002 4.73315 1.66865 4.73315 2.00002V2.73004H4.66982C3.23389 2.73004 2.06982 3.8941 2.06982 5.33004V7.27125C2.06773 7.29166 2.06665 7.31237 2.06665 7.33334C2.06665 7.3543 2.06773 7.37502 2.06982 7.39543V12C2.06982 13.436 3.23388 14.6 4.66982 14.6H11.3398C12.7758 14.6 13.9398 13.436 13.9398 12V5.33004C13.9398 3.8941 12.7758 2.73004 11.3398 2.73004H11.2667V2.00002ZM3.26982 7.93334V12C3.26982 12.7732 3.89662 13.4 4.66982 13.4H11.3398C12.113 13.4 12.7398 12.7732 12.7398 12V7.93334H3.26982ZM12.7398 6.73334V5.33004C12.7398 4.55684 12.113 3.93004 11.3398 3.93004H11.2667V4.66669C11.2667 4.99806 10.998 5.26669 10.6667 5.26669C10.3353 5.26669 10.0667 4.99806 10.0667 4.66669V3.93004H5.93315V4.66669C5.93315 4.99806 5.66453 5.26669 5.33315 5.26669C5.00178 5.26669 4.73315 4.99806 4.73315 4.66669V3.93004H4.66982C3.89662 3.93004 3.26982 4.55684 3.26982 5.33004V6.73334H12.7398Z" fill="#CACBD0"/>
</svg>
