<svg width="14" height="14" viewBox="0 0 14 14" fill="none" xmlns="http://www.w3.org/2000/svg">
<path fill-rule="evenodd" clip-rule="evenodd" d="M4 0C1.79086 0 0 1.79086 0 4V10C0 12.2091 1.79086 14 4 14H10C12.2091 14 14 12.2091 14 10V4C14 1.79086 12.2091 0 10 0H4ZM10.0316 3.9683C10.3245 4.26119 10.3245 4.73606 10.0316 5.02896L8.06056 6.99998L10.0316 8.97102C10.3245 9.26391 10.3245 9.73879 10.0316 10.0317C9.7387 10.3246 9.26383 10.3246 8.97094 10.0317L6.9999 8.06064L5.02887 10.0317C4.73597 10.3246 4.2611 10.3246 3.9682 10.0317C3.67531 9.73879 3.67531 9.26391 3.9682 8.97102L5.93924 6.99998L3.96821 5.02896C3.67532 4.73606 3.67532 4.26119 3.96821 3.9683C4.26111 3.6754 4.73598 3.6754 5.02887 3.9683L6.9999 5.93932L8.97093 3.9683C9.26382 3.6754 9.73869 3.6754 10.0316 3.9683Z" fill="#F03C3C"/>
</svg>
