<svg width="16" height="16" viewBox="0 0 16 16" fill="none" xmlns="http://www.w3.org/2000/svg">
<path d="M4.88877 4.04018C4.65445 3.80586 4.27455 3.80586 4.04024 4.04018C3.80592 4.27449 3.80592 4.65439 4.04024 4.88871L7.15151 7.99998L4.04024 11.1112C3.80592 11.3456 3.80592 11.7255 4.04024 11.9598C4.27455 12.1941 4.65445 12.1941 4.88877 11.9598L8.00004 8.8485L11.1113 11.9598C11.3456 12.1941 11.7255 12.1941 11.9598 11.9598C12.1941 11.7255 12.1941 11.3456 11.9598 11.1112L8.84856 7.99998L11.9598 4.88871C12.1941 4.65439 12.1941 4.27449 11.9598 4.04018C11.7255 3.80586 11.3456 3.80586 11.1113 4.04018L8.00004 7.15145L4.88877 4.04018Z" fill="#CACBD0"/>
</svg>
