<svg width="16" height="16" viewBox="0 0 16 16" fill="none" xmlns="http://www.w3.org/2000/svg">
<path fill-rule="evenodd" clip-rule="evenodd" d="M3.43991 1.40002C2.89887 1.40002 2.37998 1.61495 1.99741 1.99753C1.61483 2.3801 1.3999 2.89899 1.3999 3.44003V9.20006C1.3999 9.74111 1.61483 10.26 1.99741 10.6426C2.37998 11.0251 2.89887 11.2401 3.43991 11.2401H4.75977V12.56C4.75977 13.6867 5.67311 14.6001 6.79977 14.6001H12.5598C13.6865 14.6001 14.5998 13.6867 14.5998 12.56V6.80002C14.5998 5.67335 13.6865 4.76001 12.5598 4.76001H11.2399V3.44003C11.2399 2.89899 11.025 2.3801 10.6424 1.99753C10.2599 1.61495 9.74098 1.40002 9.19994 1.40002H3.43991ZM10.0399 4.76001V3.44003C10.0399 3.21725 9.95145 3.00359 9.79392 2.84606C9.63638 2.68852 9.42273 2.60002 9.19994 2.60002H3.43991C3.21713 2.60002 3.00347 2.68852 2.84593 2.84606C2.6884 3.00359 2.5999 3.21725 2.5999 3.44003V9.20006C2.5999 9.42285 2.6884 9.63651 2.84593 9.79404C3.00347 9.95157 3.21713 10.0401 3.43991 10.0401H4.75977V6.80002C4.75977 5.67335 5.67311 4.76001 6.79977 4.76001H10.0399ZM5.95977 6.80002C5.95977 6.33609 6.33585 5.96001 6.79977 5.96001H12.5598C13.0237 5.96001 13.3998 6.33609 13.3998 6.80002V12.56C13.3998 13.024 13.0237 13.4001 12.5598 13.4001H6.79977C6.33585 13.4001 5.95977 13.024 5.95977 12.56V6.80002Z" fill="#CACBD0"/>
</svg>
