<svg width="16" height="16" viewBox="0 0 16 16" fill="none" xmlns="http://www.w3.org/2000/svg">
<path fill-rule="evenodd" clip-rule="evenodd" d="M11.6094 7.90594C11.653 7.88049 11.694 7.8491 11.7314 7.81175C11.7687 7.7744 11.8001 7.73335 11.8255 7.68978L13.7172 5.79809C14.3421 5.17326 14.3421 4.16019 13.7172 3.53535L12.4648 2.2829C11.8399 1.65806 10.8269 1.65806 10.202 2.2829L8.30762 4.17731C8.26533 4.20238 8.22545 4.23311 8.18908 4.26948C8.15271 4.30585 8.12199 4.34572 8.09691 4.38802L2.93842 9.5465C2.80715 9.67778 2.7334 9.85583 2.7334 10.0415V12.5667C2.7334 12.9533 3.0468 13.2667 3.4334 13.2667H5.95864C6.14429 13.2667 6.32234 13.193 6.45362 13.0617L11.6094 7.90594ZM3.9334 12.0667L3.9334 10.2486L8.62653 5.55545L10.4447 7.37359L5.75154 12.0667H3.9334ZM9.47506 4.70693L11.0506 3.13143C11.2068 2.97522 11.46 2.97522 11.6162 3.13143L12.8687 4.38388C13.0249 4.54009 13.0249 4.79336 12.8687 4.94957L11.2932 6.52506L9.47506 4.70693Z" fill="#CACBD0"/>
</svg>
