<svg width="14" height="14" viewBox="0 0 14 14" fill="none" xmlns="http://www.w3.org/2000/svg">
<path fill-rule="evenodd" clip-rule="evenodd" d="M4 0C1.79086 0 0 1.79086 0 4V10C0 12.2091 1.79086 14 4 14H10C12.2091 14 14 12.2091 14 10V4C14 1.79086 12.2091 0 10 0H4ZM7.00293 2.88791C7.41714 2.88791 7.75293 3.2237 7.75293 3.63791V7.63791C7.75293 8.05212 7.41714 8.38791 7.00293 8.38791C6.58872 8.38791 6.25293 8.05212 6.25293 7.63791V3.63791C6.25293 3.2237 6.58872 2.88791 7.00293 2.88791ZM7.8399 10.165C7.8399 10.6317 7.46158 11.01 6.9949 11.01C6.52822 11.01 6.1499 10.6317 6.1499 10.165C6.1499 9.69833 6.52822 9.32001 6.9949 9.32001C7.46158 9.32001 7.8399 9.69833 7.8399 10.165Z" fill="#90929E"/>
</svg>
