<svg width="18" height="18" viewBox="0 0 18 18" fill="none" xmlns="http://www.w3.org/2000/svg">
<path d="M1.25 5C1.25 4.58579 1.58579 4.25 2 4.25H16C16.4142 4.25 16.75 4.58579 16.75 5C16.75 5.41421 16.4142 5.75 16 5.75H2C1.58579 5.75 1.25 5.41421 1.25 5Z" fill="#CACBD0"/>
<path d="M3.58313 9C3.58313 8.58579 3.91892 8.25 4.33313 8.25H13.6665C14.0807 8.25 14.4165 8.58579 14.4165 9C14.4165 9.41421 14.0807 9.75 13.6665 9.75H4.33313C3.91892 9.75 3.58313 9.41421 3.58313 9Z" fill="#CACBD0"/>
<path d="M7.83325 12.25C7.41904 12.25 7.08325 12.5858 7.08325 13C7.08325 13.4142 7.41904 13.75 7.83325 13.75H10.1666C10.5808 13.75 10.9166 13.4142 10.9166 13C10.9166 12.5858 10.5808 12.25 10.1666 12.25H7.83325Z" fill="#CACBD0"/>
</svg>
