<svg width="16" height="16" viewBox="0 0 16 16" fill="none" xmlns="http://www.w3.org/2000/svg">
<path fill-rule="evenodd" clip-rule="evenodd" d="M3.33324 3.29998C3.13874 3.29998 2.95222 3.37724 2.81469 3.51476C2.67716 3.65229 2.5999 3.83882 2.5999 4.03331V11.3666C2.5999 11.5611 2.67716 11.7477 2.81469 11.8852C2.95222 12.0227 3.13874 12.1 3.33324 12.1H12.6666C12.8611 12.1 13.0476 12.0227 13.1851 11.8852C13.3226 11.7477 13.3999 11.5611 13.3999 11.3666V6.03331C13.3999 5.83882 13.3226 5.65229 13.1851 5.51476C13.0476 5.37724 12.8611 5.29998 12.6666 5.29998H7.9999C7.84077 5.29998 7.68816 5.23676 7.57564 5.12424L5.75137 3.29998H3.33324ZM1.96616 2.66624C2.32873 2.30367 2.82048 2.09998 3.33324 2.09998H5.9999C6.15903 2.09998 6.31164 2.16319 6.42417 2.27571L8.24843 4.09998H12.6666C13.1793 4.09998 13.6711 4.30367 14.0336 4.66624C14.3962 5.02881 14.5999 5.52056 14.5999 6.03331V11.3666C14.5999 11.8794 14.3962 12.3711 14.0336 12.7337C13.6711 13.0963 13.1793 13.3 12.6666 13.3H3.33324C2.82048 13.3 2.32873 13.0963 1.96616 12.7337C1.60359 12.3711 1.3999 11.8794 1.3999 11.3666V4.03331C1.3999 3.52056 1.60359 3.02881 1.96616 2.66624Z" fill="#CACBD0"/>
</svg>
