<svg width="18" height="18" viewBox="0 0 18 18" fill="none" xmlns="http://www.w3.org/2000/svg">
<path d="M7.99997 3.75C6.60758 3.75 5.3716 4.4188 4.5952 5.45587C4.34696 5.78746 3.87692 5.85502 3.54533 5.60678C3.21375 5.35854 3.14618 4.8885 3.39442 4.55691C4.44184 3.15782 6.11499 2.25 7.99997 2.25H9.99997C13.1756 2.25 15.75 4.82436 15.75 8V10C15.75 13.1756 13.1756 15.75 9.99997 15.75H7.99997C6.39991 15.75 4.95133 15.0955 3.90977 14.0414C3.61863 13.7467 3.62147 13.2719 3.91611 12.9807C4.21074 12.6896 4.68561 12.6924 4.97675 12.9871C5.74808 13.7677 6.81701 14.25 7.99997 14.25H9.99997C12.3472 14.25 14.25 12.3472 14.25 10V8C14.25 5.65279 12.3472 3.75 9.99997 3.75H7.99997Z" fill="#CACBD0"/>
<path fill-rule="evenodd" clip-rule="evenodd" d="M7.04198 8.25C6.6562 7.36705 5.77516 6.75 4.75 6.75C3.36929 6.75 2.25 7.86929 2.25 9.25C2.25 10.6307 3.36929 11.75 4.75 11.75C5.95948 11.75 6.96836 10.8911 7.19999 9.75H10.35V10.3841C10.35 10.7983 10.6858 11.1341 11.1 11.1341C11.5142 11.1341 11.85 10.7983 11.85 10.3841V9C11.85 8.58579 11.5142 8.25 11.1 8.25H7.04198ZM3.75 9.25C3.75 8.69772 4.19772 8.25 4.75 8.25C5.30228 8.25 5.75 8.69772 5.75 9.25C5.75 9.80228 5.30228 10.25 4.75 10.25C4.19772 10.25 3.75 9.80228 3.75 9.25Z" fill="#CACBD0"/>
</svg>
