<svg width="18" height="18" viewBox="0 0 18 18" fill="none" xmlns="http://www.w3.org/2000/svg">
<path fill-rule="evenodd" clip-rule="evenodd" d="M4.00012 2.75C3.30977 2.75 2.75012 3.30964 2.75012 4V7C2.75012 7.69036 3.30977 8.25 4.00012 8.25H7.00012C7.69048 8.25 8.25012 7.69036 8.25012 7V4C8.25012 3.30964 7.69048 2.75 7.00012 2.75H4.00012ZM4.25012 6.75V4.25H6.75012V6.75H4.25012Z" fill="#CACBD0"/>
<path fill-rule="evenodd" clip-rule="evenodd" d="M4 9.75C3.30964 9.75 2.75 10.3096 2.75 11V14C2.75 14.6904 3.30964 15.25 4 15.25H7C7.69036 15.25 8.25 14.6904 8.25 14V11C8.25 10.3096 7.69036 9.75 7 9.75H4ZM4.25 13.75V11.25H6.75V13.75H4.25Z" fill="#CACBD0"/>
<path fill-rule="evenodd" clip-rule="evenodd" d="M9.75012 4C9.75012 3.30964 10.3098 2.75 11.0001 2.75H14.0001C14.6905 2.75 15.2501 3.30964 15.2501 4V7C15.2501 7.69036 14.6905 8.25 14.0001 8.25H11.0001C10.3098 8.25 9.75012 7.69036 9.75012 7V4ZM11.2501 4.25V6.75H13.7501V4.25H11.2501Z" fill="#CACBD0"/>
<path fill-rule="evenodd" clip-rule="evenodd" d="M11.0001 9.75C10.3098 9.75 9.75012 10.3096 9.75012 11V14C9.75012 14.6904 10.3098 15.25 11.0001 15.25H14.0001C14.6905 15.25 15.2501 14.6904 15.2501 14V11C15.2501 10.3096 14.6905 9.75 14.0001 9.75H11.0001ZM11.2501 13.75V11.25H13.7501V13.75H11.2501Z" fill="#CACBD0"/>
</svg>
