<svg width="16" height="16" viewBox="0 0 16 16" fill="none" xmlns="http://www.w3.org/2000/svg">
<path d="M7.9999 6.85004C8.33127 6.85004 8.5999 7.11867 8.5999 7.45004V10.6808C8.5999 11.0122 8.33127 11.2808 7.9999 11.2808C7.66853 11.2808 7.3999 11.0122 7.3999 10.6808V7.45004C7.3999 7.11867 7.66853 6.85004 7.9999 6.85004Z" fill="#CACBD0"/>
<path d="M7.9999 4.75C7.66853 4.75 7.3999 5.01863 7.3999 5.35C7.3999 5.68137 7.66853 5.95 7.9999 5.95H8.00657C8.33794 5.95 8.60657 5.68137 8.60657 5.35C8.60657 5.01863 8.33794 4.75 8.00657 4.75H7.9999Z" fill="#CACBD0"/>
<path fill-rule="evenodd" clip-rule="evenodd" d="M1.3999 7.00003C1.3999 3.90723 3.90711 1.40002 6.99991 1.40002H8.99991C12.0927 1.40002 14.5999 3.90723 14.5999 7.00003V9.00003C14.5999 12.0928 12.0927 14.6 8.99991 14.6H6.99991C3.90711 14.6 1.3999 12.0928 1.3999 9.00003V7.00003ZM6.99991 2.60002C4.56985 2.60002 2.5999 4.56997 2.5999 7.00003V9.00003C2.5999 11.4301 4.56985 13.4 6.99991 13.4H8.99991C11.43 13.4 13.3999 11.4301 13.3999 9.00003V7.00003C13.3999 4.56997 11.43 2.60002 8.99991 2.60002H6.99991Z" fill="#CACBD0"/>
</svg>
