<svg width="18" height="18" viewBox="0 0 18 18" fill="none" xmlns="http://www.w3.org/2000/svg">
<path d="M2.25 5C2.25 4.58579 2.58579 4.25 3 4.25H15C15.4142 4.25 15.75 4.58579 15.75 5C15.75 5.41421 15.4142 5.75 15 5.75H3C2.58579 5.75 2.25 5.41421 2.25 5Z" fill="#CACBD0"/>
<path d="M2.25 9C2.25 8.58579 2.58579 8.25 3 8.25H15C15.4142 8.25 15.75 8.58579 15.75 9C15.75 9.41421 15.4142 9.75 15 9.75H3C2.58579 9.75 2.25 9.41421 2.25 9Z" fill="#CACBD0"/>
<path d="M3 12.25C2.58579 12.25 2.25 12.5858 2.25 13C2.25 13.4142 2.58579 13.75 3 13.75H15C15.4142 13.75 15.75 13.4142 15.75 13C15.75 12.5858 15.4142 12.25 15 12.25H3Z" fill="#CACBD0"/>
</svg>
