<svg width="20" height="20" viewBox="0 0 20 20" fill="none" xmlns="http://www.w3.org/2000/svg">
<path d="M14 2H6C3.79086 2 2 3.79086 2 6V14C2 16.2091 3.79086 18 6 18H14C16.2091 18 18 16.2091 18 14V6C18 3.79086 16.2091 2 14 2Z" stroke="#90929E" stroke-width="1.8"/>
<path fill-rule="evenodd" clip-rule="evenodd" d="M9 9.63672H10C10.1461 9.63672 11.1176 9.63672 12 9.63672C12.8285 9.63672 13.5 10.3083 13.5 11.1367V13.1367C13.5 13.9651 12.8285 14.6367 12 14.6367C11.1176 14.6367 10.1461 14.6367 10 14.6367H9C8.8895 14.6367 8.46711 14.6367 8.00014 14.6367C7.17171 14.6367 6.5 13.9651 6.5 13.1367V11.1367C6.5 10.3083 7.17171 9.63672 8.00014 9.63672C8.46711 9.63672 8.8895 9.63672 9 9.63672Z" fill="#33363F"/>
<path fill-rule="evenodd" clip-rule="evenodd" d="M9 9.63672H10C10.1461 9.63672 11.1176 9.63672 12 9.63672C12.8285 9.63672 13.5 10.3083 13.5 11.1367V13.1367C13.5 13.9651 12.8285 14.6367 12 14.6367C11.1176 14.6367 10.1461 14.6367 10 14.6367H9C8.8895 14.6367 8.46711 14.6367 8.00014 14.6367C7.17171 14.6367 6.5 13.9651 6.5 13.1367V11.1367C6.5 10.3083 7.17171 9.63672 8.00014 9.63672C8.46711 9.63672 8.8895 9.63672 9 9.63672Z" stroke="#90929E" stroke-width="1.8" stroke-linejoin="round"/>
<path d="M8.5 9.1367V7.13672C8.5 6.30829 9.17157 5.63672 10 5.63672C10.8284 5.63672 11.5 6.30829 11.5 7.13672V7.1367" stroke="#90929E" stroke-width="1.8" stroke-linecap="round" stroke-linejoin="round"/>
</svg>
