<svg width="16" height="16" viewBox="0 0 16 16" fill="none" xmlns="http://www.w3.org/2000/svg">
<path fill-rule="evenodd" clip-rule="evenodd" d="M6.50546 2.60002C7.83094 2.60002 8.90546 3.67454 8.90546 5.00002V5.45067C8.90546 5.78204 9.17409 6.05067 9.50546 6.05067C9.83683 6.05067 10.1055 5.78204 10.1055 5.45067V5.00002C10.1055 3.0118 8.49368 1.40002 6.50546 1.40002H5.75015H4.75015C2.76192 1.40002 1.15015 3.0118 1.15015 5.00002V11C1.15015 12.9882 2.76192 14.6 4.75015 14.6H5.75015H6.49611C8.51712 14.6 10.1051 12.9445 10.1359 10.9551C10.1389 10.7569 10.1433 10.5786 10.1494 10.43C10.1628 10.0989 9.90526 9.81961 9.57416 9.80618C9.24307 9.79275 8.96377 10.0503 8.95034 10.3814C8.94376 10.5436 8.93915 10.7328 8.936 10.9365C8.9149 12.3021 7.83048 13.4 6.49611 13.4H5.75015H4.75015C3.42466 13.4 2.35015 12.3255 2.35015 11V5.00002C2.35015 3.67454 3.42466 2.60002 4.75015 2.60002H5.75015H6.50546ZM11.3632 5.07281C11.5991 4.84014 11.979 4.84279 12.2117 5.07873L14.677 7.57873C14.9074 7.81235 14.9074 8.1877 14.677 8.42132L12.2117 10.9213C11.979 11.1573 11.5991 11.1599 11.3632 10.9272C11.1272 10.6946 11.1246 10.3147 11.3573 10.0787L12.8155 8.60002H7.2498C6.91843 8.60002 6.6498 8.3314 6.6498 8.00002C6.6498 7.66865 6.91843 7.40002 7.2498 7.40002H12.8155L11.3573 5.92132C11.1246 5.68537 11.1272 5.30549 11.3632 5.07281Z" fill="#CACBD0"/>
</svg>
