<svg width="20" height="20" viewBox="0 0 20 20" fill="none" xmlns="http://www.w3.org/2000/svg">
<path fill-rule="evenodd" clip-rule="evenodd" d="M9.99617 18.4999C11.4214 18.4999 12.5768 17.3443 12.5768 15.9188V14.6283H7.41553V15.9188C7.41553 17.3443 8.57092 18.4999 9.99617 18.4999Z" fill="#90929E"/>
<path fill-rule="evenodd" clip-rule="evenodd" d="M15.4194 11.0928V7.49427C15.4194 4.78659 13.2383 2.58424 10.5308 2.5579L9.52194 2.54809C6.81935 2.5218 4.60716 4.69137 4.58088 7.39396C4.58072 7.40982 4.58065 7.42569 4.58065 7.44156V11.0928C4.58065 11.8054 4.00295 12.3831 3.29032 12.3831C2.5777 12.3831 2 12.9608 2 13.6734V13.6736C2 14.3864 2.5778 14.9642 3.29055 14.9642H16.7095C17.4222 14.9642 18 14.3864 18 13.6736V13.6734C18 12.9608 17.4223 12.3831 16.7097 12.3831C15.9971 12.3831 15.4194 11.8054 15.4194 11.0928Z" fill="#33363F" stroke="#90929E" stroke-width="1.8"/>
</svg>
