<svg width="14" height="14" viewBox="0 0 14 14" fill="none" xmlns="http://www.w3.org/2000/svg">
<path fill-rule="evenodd" clip-rule="evenodd" d="M4 0C1.79086 0 0 1.79086 0 4V10C0 12.2091 1.79086 14 4 14H10C12.2091 14 14 12.2091 14 10V4C14 1.79086 12.2091 0 10 0H4ZM3.87394 3.90503C3.73982 3.36856 4.14558 2.84888 4.69856 2.84888H9.30165C9.85463 2.84888 10.2604 3.36856 10.1263 3.90503L10.0158 4.34671C9.75126 5.40508 9.13042 6.34011 8.25767 6.99467L8.2506 6.99998L8.25769 7.0053C9.13044 7.65986 9.75128 8.59489 10.0159 9.65326L10.0952 9.97068C10.2451 10.5703 9.79164 11.1511 9.17359 11.1511H4.82666C4.20862 11.1511 3.75513 10.5703 3.90503 9.97068L3.98439 9.65326C4.24898 8.59489 4.86981 7.65986 5.74256 7.0053L5.74964 6.99999L5.74254 6.99467C4.86979 6.34011 4.24895 5.40508 3.98436 4.34671L3.87394 3.90503ZM7.0001 7.93784L6.99964 7.93749L6.64256 8.2053C6.14823 8.57605 5.77201 9.07831 5.55442 9.65109H8.44584C8.22825 9.07831 7.85203 8.57605 7.35769 8.2053L7.0006 7.93748L7.0001 7.93784ZM7.35767 5.79467L7.0006 6.06248L7.00013 6.06213L6.99964 6.06249L6.64254 5.79467C6.1482 5.42392 5.77199 4.92166 5.55439 4.34888H8.44582C8.22822 4.92166 7.85201 5.42392 7.35767 5.79467Z" fill="#FFAB3D"/>
</svg>
