<svg width="20" height="20" viewBox="0 0 20 20" fill="none" xmlns="http://www.w3.org/2000/svg">
<path fill-rule="evenodd" clip-rule="evenodd" d="M10.651 6.49943C10.651 5.70631 10.008 5.06335 9.21491 5.06335C8.42179 5.06335 7.77884 5.70631 7.77884 6.49943V8.91023V12.8774L5.20615 11.8163C4.62083 11.5748 3.90814 11.6647 3.44339 12.0382C2.82793 12.5328 2.8571 13.3416 3.50659 13.8073L8.19789 17.6038C8.55375 17.8594 9.01462 18 9.49201 18H13.9966C14.9077 18 15.6972 17.4913 15.8946 16.7763L16.9418 12.8774C17.2461 11.7757 16.3253 10.6093 14.9378 10.2136L10.651 8.80113V6.49943Z" fill="#33363F" stroke="#90929E" stroke-width="1.8" stroke-linejoin="round"/>
<path d="M6.1333 3.05052C8.03816 1.64983 10.5407 1.64982 12.4456 3.05052" stroke="#90929E" stroke-width="1.8" stroke-linecap="round" stroke-linejoin="round"/>
</svg>
