<svg width="20" height="20" viewBox="0 0 20 20" fill="none" xmlns="http://www.w3.org/2000/svg">
<path fill-rule="evenodd" clip-rule="evenodd" d="M16.0474 15.4296C14.5805 13.7374 12.4152 12.667 9.99985 12.667C7.62853 12.667 5.49817 13.6987 4.0332 15.3378C5.14014 17.1134 7.12902 18.0012 9.99985 18.0012C12.8707 18.0012 14.8865 17.144 16.0474 15.4296Z" fill="#33363F"/>
<path d="M11.3333 2H8.66667C4.98477 2 2 4.98477 2 8.66667V11.3333C2 15.0152 4.98477 18 8.66667 18H11.3333C15.0152 18 18 15.0152 18 11.3333V8.66667C18 4.98477 15.0152 2 11.3333 2Z" stroke="#90929E" stroke-width="1.8"/>
<path d="M16.0474 15.4296C14.5805 13.7374 12.4152 12.667 9.99985 12.667C7.62853 12.667 5.49817 13.6987 4.0332 15.3378" stroke="#90929E" stroke-width="1.8" stroke-linecap="round"/>
<path d="M9.99984 9.99967C11.2885 9.99967 12.3332 8.95501 12.3332 7.66634C12.3332 6.37768 11.2885 5.33301 9.99984 5.33301C8.71117 5.33301 7.6665 6.37768 7.6665 7.66634C7.6665 8.95501 8.71117 9.99967 9.99984 9.99967Z" stroke="#90929E" stroke-width="1.8"/>
</svg>
