<svg width="16" height="16" viewBox="0 0 16 16" fill="none" xmlns="http://www.w3.org/2000/svg">
<path fill-rule="evenodd" clip-rule="evenodd" d="M6.99988 2.60003C4.56982 2.60003 2.59988 4.56998 2.59988 7.00003V9.00003C2.59988 9.87377 2.85455 10.688 3.29372 11.3726C4.49039 10.1558 6.15717 9.40003 7.99977 9.40003C9.84248 9.40003 11.5092 10.1558 12.706 11.3727C13.1452 10.6881 13.3999 9.87383 13.3999 9.00003V7.00003C13.3999 4.56998 11.4299 2.60003 8.99988 2.60003H6.99988ZM6.99988 13.4C5.87799 13.4 4.85417 12.9802 4.07699 12.289C5.062 11.2481 6.45484 10.6 7.99977 10.6C9.5447 10.6 10.9376 11.2482 11.9227 12.2891C11.1455 12.9802 10.1217 13.4 8.99988 13.4H6.99988ZM1.39988 7.00003C1.39988 3.90724 3.90708 1.40003 6.99988 1.40003H8.99988C12.0927 1.40003 14.5999 3.90724 14.5999 7.00003V9.00003C14.5999 12.0928 12.0927 14.6 8.99988 14.6H6.99988C3.90708 14.6 1.39988 12.0928 1.39988 9.00003V7.00003ZM6.84988 6.25003C6.84988 5.6149 7.36475 5.10003 7.99988 5.10003C8.63501 5.10003 9.14988 5.6149 9.14988 6.25003C9.14988 6.88516 8.635 7.40003 7.99988 7.40003C7.36475 7.40003 6.84988 6.88516 6.84988 6.25003ZM7.99988 3.90003C6.70201 3.90003 5.64988 4.95216 5.64988 6.25003C5.64988 7.5479 6.70201 8.60003 7.99988 8.60003C9.29775 8.60003 10.3499 7.5479 10.3499 6.25003C10.3499 4.95216 9.29775 3.90003 7.99988 3.90003Z" fill="#CACBD0"/>
</svg>
