<svg width="16" height="16" viewBox="0 0 16 16" fill="none" xmlns="http://www.w3.org/2000/svg">
<path fill-rule="evenodd" clip-rule="evenodd" d="M7.9999 3.90002C6.70203 3.90002 5.6499 4.95215 5.6499 6.25002C5.6499 7.54789 6.70203 8.60002 7.9999 8.60002C9.29777 8.60002 10.3499 7.54789 10.3499 6.25002C10.3499 4.95216 9.29777 3.90002 7.9999 3.90002ZM6.8499 6.25002C6.8499 5.6149 7.36477 5.10002 7.9999 5.10002C8.63503 5.10002 9.1499 5.6149 9.1499 6.25002C9.1499 6.88515 8.63503 7.40002 7.9999 7.40002C7.36478 7.40002 6.8499 6.88515 6.8499 6.25002Z" fill="#CACBD0"/>
<path fill-rule="evenodd" clip-rule="evenodd" d="M1.3999 7.00002C1.3999 3.90723 3.90711 1.40002 6.9999 1.40002H8.9999C12.0927 1.40002 14.5999 3.90723 14.5999 7.00002V9.00002C14.5999 12.0928 12.0927 14.6 8.9999 14.6H6.9999C3.90711 14.6 1.3999 12.0928 1.3999 9.00002V7.00002ZM6.9999 2.60002C4.56985 2.60002 2.5999 4.56997 2.5999 7.00002V9.00002C2.5999 9.87376 2.85458 10.688 3.29374 11.3726C4.49042 10.1558 6.1572 9.40002 7.99979 9.40002C9.8425 9.40002 11.5093 10.1558 12.706 11.3727C13.1452 10.6881 13.3999 9.87382 13.3999 9.00002V7.00002C13.3999 4.56997 11.43 2.60002 8.9999 2.60002H6.9999ZM6.9999 13.4C5.87802 13.4 4.8542 12.9801 4.07701 12.289C5.06203 11.2481 6.45486 10.6 7.99979 10.6C9.54473 10.6 10.9377 11.2481 11.9227 12.2891C11.1455 12.9802 10.1217 13.4 8.9999 13.4H6.9999Z" fill="#CACBD0"/>
</svg>
