<svg width="16" height="16" viewBox="0 0 16 16" fill="none" xmlns="http://www.w3.org/2000/svg">
<path fill-rule="evenodd" clip-rule="evenodd" d="M9.21314 1.43916C9.44599 1.52768 9.59991 1.75088 9.59991 1.99999V6.64999H12.9999C13.2362 6.64999 13.4505 6.78866 13.5473 7.0042C13.644 7.21974 13.6053 7.47201 13.4484 7.64861L7.44836 14.3986C7.28286 14.5848 7.01953 14.6494 6.78668 14.5608C6.55384 14.4723 6.39991 14.2491 6.39991 14V9.3519L2.99958 9.34999C2.76336 9.34986 2.54921 9.21114 2.4525 8.99563C2.35579 8.78012 2.39454 8.52792 2.55147 8.35137L8.55147 1.60137C8.71697 1.41519 8.98029 1.35063 9.21314 1.43916ZM4.33535 8.15074L7.00025 8.15224C7.33149 8.15243 7.59991 8.421 7.59991 8.75224V12.4219L11.6638 7.84999H8.99991C8.66854 7.84999 8.39991 7.58136 8.39991 7.24999V3.57811L4.33535 8.15074Z" fill="#CACBD0"/>
</svg>
