<svg width="16" height="16" viewBox="0 0 16 16" fill="none" xmlns="http://www.w3.org/2000/svg">
<path fill-rule="evenodd" clip-rule="evenodd" d="M7.99988 2.60002C5.96093 2.60002 4.18478 3.73019 3.26571 5.40002H4.9999C5.33127 5.40002 5.5999 5.66865 5.5999 6.00002C5.5999 6.3314 5.33127 6.60002 4.9999 6.60002H1.9999C1.66853 6.60002 1.3999 6.3314 1.3999 6.00002V3.00002C1.3999 2.66865 1.66853 2.40002 1.9999 2.40002C2.33127 2.40002 2.5999 2.66865 2.5999 3.00002V4.20451C3.79394 2.50878 5.76696 1.40002 7.99988 1.40002C11.645 1.40002 14.5999 4.35495 14.5999 8.00002C14.5999 11.6451 11.645 14.6 7.99988 14.6C4.48845 14.6 1.61787 11.8582 1.41171 8.39817C1.392 8.06739 1.64417 7.78325 1.97496 7.76354C2.30574 7.74383 2.58987 7.99601 2.60958 8.32679C2.7782 11.1567 5.12728 13.4 7.99988 13.4C10.9822 13.4 13.3999 10.9824 13.3999 8.00002C13.3999 5.01769 10.9822 2.60002 7.99988 2.60002ZM8.39971 5.00002C8.39971 4.66865 8.13108 4.40002 7.79971 4.40002C7.46834 4.40002 7.19971 4.66865 7.19971 5.00002V8.00002C7.19971 8.21793 7.31784 8.4187 7.50832 8.52452L10.2083 10.0245C10.498 10.1854 10.8633 10.0811 11.0242 9.79141C11.1851 9.50174 11.0808 9.13646 10.7911 8.97553L8.39971 7.64698V5.00002Z" fill="#CACBD0"/>
</svg>
