<svg width="18" height="18" viewBox="0 0 18 18" fill="none" xmlns="http://www.w3.org/2000/svg">
<path d="M4.74986 4.74992V1.34989C4.74986 0.880444 5.13042 0.499878 5.59987 0.499878H16.65C17.1195 0.499878 17.5 0.880444 17.5 1.34989V12.4C17.5 12.8695 17.1195 13.25 16.65 13.25H13.2501V16.6437C13.2501 17.1166 12.8685 17.5 12.3937 17.5H1.3562C0.883235 17.5 0.5 17.1185 0.5 16.6437L0.502346 5.60629C0.502448 5.13333 0.884034 4.74992 1.35872 4.74992H4.74986ZM6.44988 4.74992H12.3939C12.8668 4.74992 13.2501 5.13151 13.2501 5.60629V11.55H15.8V2.19989H6.44988V4.74992ZM11.5501 6.44994H2.20218L2.2002 15.8H11.5501V6.44994ZM6.02711 14.1L3.02188 11.0948L4.22397 9.89273L6.02711 11.6959L9.63343 8.08952L10.8355 9.2916L6.02711 14.1Z" fill="#90929E"/>
</svg>
