<svg width="16" height="16" viewBox="0 0 16 16" fill="none" xmlns="http://www.w3.org/2000/svg">
<path fill-rule="evenodd" clip-rule="evenodd" d="M6.8572 1.89116C7.57816 1.5384 8.42164 1.5384 9.14261 1.89116L13.1426 3.84833C14.0344 4.2847 14.5999 5.19089 14.5999 6.18376V9.84378C14.5999 10.8409 14.0296 11.7502 13.1319 12.1844L9.13194 14.119C8.41687 14.4648 7.58293 14.4648 6.86786 14.119L2.86786 12.1844C1.97019 11.7502 1.3999 10.8409 1.3999 9.84378V6.18376C1.3999 5.19089 1.96536 4.2847 2.8572 3.84833L6.8572 1.89116ZM7.3999 2.96168C7.39479 2.9641 7.38969 2.96656 7.3846 2.96905L3.3846 4.92622L3.36587 4.93555L7.38517 6.8995C7.39007 6.90189 7.39498 6.90426 7.3999 6.90659V2.96168ZM8.5999 2.96168V6.9065C8.60476 6.90419 8.6096 6.90186 8.61443 6.8995L12.6338 4.9355L12.6152 4.92622L8.61521 2.96905C8.61012 2.96656 8.60501 2.9641 8.5999 2.96168ZM2.5999 6.18376C2.5999 6.09074 2.60912 5.99915 2.62687 5.91005L6.85835 7.97767C7.57862 8.32962 8.42098 8.32962 9.14126 7.97767L13.3729 5.90996C13.3907 5.99909 13.3999 6.09071 13.3999 6.18376V9.84378C13.3999 10.3807 13.0928 10.8703 12.6095 11.1041L8.60946 13.0387C8.22442 13.2249 7.77538 13.2249 7.39034 13.0387L3.39034 11.1041C2.90698 10.8703 2.5999 10.3807 2.5999 9.84378V6.18376Z" fill="#CACBD0"/>
</svg>
