<svg width="18" height="18" viewBox="0 0 18 18" fill="none" xmlns="http://www.w3.org/2000/svg">
<path d="M8.04556 2C11.3846 2 14.0911 4.70935 14.0911 8.05119C14.0911 9.4515 13.6159 10.7408 12.8181 11.7662L15.7306 14.4107C16.0929 14.7774 16.0893 15.3683 15.7226 15.7306C15.3559 16.0929 14.765 16.0893 14.4027 15.7226L11.8 12.7944C10.7687 13.6133 9.46423 14.1024 8.04556 14.1024C4.70655 14.1024 2 11.393 2 8.05119C2 4.70935 4.70655 2 8.04556 2ZM8.04556 3.24444C5.39412 3.24444 3.24444 5.39635 3.24444 8.05119C3.24444 10.706 5.39412 12.8579 8.04556 12.8579C10.697 12.8579 12.8467 10.706 12.8467 8.05119C12.8467 5.39635 10.697 3.24444 8.04556 3.24444Z" fill="#CACBD0"/>
</svg>
