<svg width="22" height="22" viewBox="0 0 22 22" fill="none" xmlns="http://www.w3.org/2000/svg">
<path d="M2.19367 12.8534C1.93001 11.6076 1.94069 10.3469 2.19442 9.14667C3.19309 9.26428 4.06477 8.93353 4.34981 8.2454C4.63484 7.55727 4.25233 6.70703 3.46302 6.08402C4.13229 5.05591 5.01623 4.15687 6.08355 3.46241C6.70661 4.25214 7.5571 4.63492 8.2454 4.34981C8.9337 4.0647 9.26438 3.19266 9.14658 2.19368C10.3923 1.93001 11.6531 1.94069 12.8534 2.19442C12.7358 3.19309 13.0664 4.06477 13.7546 4.34981C14.4427 4.63484 15.293 4.25233 15.916 3.46302C16.9441 4.13229 17.8431 5.01623 18.5375 6.08354C17.7478 6.7066 17.3651 7.5571 17.6502 8.2454C17.9353 8.9337 18.8074 9.26446 19.8063 9.14658C20.07 10.3923 20.0593 11.6531 19.8056 12.8534C18.8069 12.7358 17.9352 13.0665 17.6502 13.7546C17.3651 14.4427 17.7476 15.293 18.537 15.916C17.8678 16.944 16.9837 17.8431 15.9164 18.5376C15.2934 17.7479 14.4429 17.365 13.7546 17.6502C13.0662 17.9353 12.7356 18.8074 12.8535 19.8063C11.6076 20.07 10.3469 20.0593 9.14667 19.8056C9.26429 18.8069 8.93353 17.9352 8.2454 17.6502C7.55727 17.3651 6.70703 17.7476 6.08401 18.537C5.05591 17.8677 4.15687 16.9838 3.46242 15.9164C4.25214 15.2934 4.63491 14.4429 4.34981 13.7546C4.0647 13.0663 3.19265 12.7356 2.19367 12.8534ZM3.80194 11.1891C4.79151 11.463 5.60815 12.0901 6.01236 13.066C6.41656 14.0418 6.28251 15.0626 5.77644 15.956C5.86332 16.0475 5.95259 16.1368 6.04413 16.2235C6.93749 15.7175 7.95829 15.5835 8.93404 15.9877C9.90978 16.3919 10.5368 17.2084 10.8108 18.1979C10.9369 18.2013 11.063 18.2014 11.1892 18.198C11.463 17.2085 12.0901 16.3919 13.066 15.9877C14.0418 15.5834 15.0626 15.7175 15.956 16.2236C16.0475 16.1367 16.1367 16.0474 16.2234 15.9558C15.7175 15.0625 15.5834 14.0417 15.9876 13.066C16.3918 12.0902 17.2084 11.4631 18.1979 11.1892C18.2013 11.0632 18.2014 10.9369 18.1981 10.8108C17.2085 10.537 16.3919 9.90986 15.9876 8.93404C15.5834 7.95821 15.7175 6.93735 16.2235 6.04397C16.1367 5.95244 16.0474 5.86327 15.9558 5.77652C15.0626 6.28253 14.0417 6.41653 13.066 6.01236C12.0902 5.60818 11.4631 4.79161 11.1892 3.80212C11.0632 3.79872 10.937 3.79866 10.8108 3.80194C10.5369 4.79151 9.90987 5.60815 8.93404 6.01236C7.95821 6.41656 6.93735 6.28251 6.04397 5.77644C5.95243 5.86332 5.86327 5.95258 5.77652 6.04414C6.28253 6.93748 6.41653 7.95829 6.01236 8.93404C5.60818 9.90977 4.79161 10.5369 3.80211 10.8108C3.79872 10.9369 3.79866 11.063 3.80194 11.1891ZM11 13.6993C9.50921 13.6993 8.3007 12.4907 8.3007 11C8.3007 9.5092 9.50921 8.30071 11 8.30071C12.4908 8.30071 13.6993 9.5092 13.6993 11C13.6993 12.4907 12.4908 13.6993 11 13.6993ZM11 11.8998C11.4969 11.8998 11.8998 11.497 11.8998 11C11.8998 10.5031 11.4969 10.1003 11 10.1003C10.5031 10.1003 10.1003 10.5031 10.1003 11C10.1003 11.497 10.5031 11.8998 11 11.8998Z" fill="#90929E"/>
</svg>
