<svg width="20" height="20" viewBox="0 0 20 20" fill="none" xmlns="http://www.w3.org/2000/svg">
<path d="M16.7074 8.4527L16.4433 8.60554C15.9433 8.89495 15.6376 9.43088 15.643 10.0086C15.6483 10.5741 15.951 11.095 16.4397 11.3796L16.7011 11.5318C17.4181 11.9493 17.6616 12.8701 17.2494 13.5901C17.0895 13.8693 16.9261 14.1556 16.7727 14.4244C16.3599 15.1483 15.4367 15.3984 14.7155 14.9808L14.4726 14.8402C13.9608 14.5439 13.3289 14.5469 12.82 14.848C12.3224 15.1425 12.0172 15.6777 12.0172 16.2559V16.5C12.0172 17.3284 11.3457 18 10.5172 18H10.0054H9.49356C8.66513 18 7.99364 17.3284 7.99364 16.5V16.2602C7.99364 15.6798 7.68567 15.143 7.18463 14.8501C6.67756 14.5536 6.05037 14.5523 5.54202 14.8465L5.29886 14.9873C4.57365 15.407 3.64475 15.1516 3.22508 14.4263C3.14689 14.2912 3.0649 14.1502 2.98026 14.0055L2.97179 13.9907L2.72462 13.5595C2.32362 12.8595 2.56419 11.9676 3.26221 11.5633L3.37317 11.499C3.90829 11.1891 4.23775 10.6175 4.23775 9.99914C4.23775 9.37981 3.9073 8.80754 3.3709 8.49795L3.25596 8.43161C2.55925 8.0295 2.31463 7.14299 2.71732 6.44661C2.79867 6.30593 2.88454 6.15818 2.97361 6.00592C3.06113 5.85632 3.14581 5.71065 3.22638 5.57135C3.64123 4.85419 4.55975 4.6016 5.27676 5.0167L5.4275 5.10396C5.99234 5.43097 6.69453 5.40573 7.23444 5.039C7.70032 4.72256 7.97924 4.19592 7.97924 3.63273V3.48467C7.97924 2.66471 8.64377 2 9.46373 2H9.991H10.5028C11.3313 2 12.0028 2.67157 12.0028 3.5V3.75876C12.0028 4.34278 12.3166 4.88175 12.8245 5.17002C13.3256 5.45438 13.9398 5.45176 14.4384 5.16313L14.6986 5.01252C15.4238 4.59271 16.3528 4.84814 16.7725 5.57343C16.8506 5.7084 16.9325 5.84925 17.017 5.99374L17.0249 6.00759L17.2573 6.41261C17.6675 7.12801 17.4211 8.03958 16.7074 8.4527Z" stroke="#90929E" stroke-width="1.8" stroke-linejoin="round"/>
<path d="M9.9997 12.4917C8.61872 12.4917 7.5 11.3763 7.5 10.0015C7.5 8.62614 8.61872 7.51074 9.9997 7.51074C11.381 7.51074 12.5 8.62614 12.5 10.0015C12.5 11.3763 11.381 12.4917 9.9997 12.4917Z" fill="#33363F" stroke="#90929E" stroke-width="1.8" stroke-linejoin="round"/>
</svg>
