<svg width="16" height="16" viewBox="0 0 16 16" fill="none" xmlns="http://www.w3.org/2000/svg">
<path d="M13.3106 8.64996L13.1406 8.54999C13.0501 8.49892 12.9747 8.42482 12.9221 8.33527C12.8694 8.24571 12.8413 8.14387 12.8406 8.03998C12.8388 7.9329 12.8656 7.82727 12.9184 7.73407C12.9711 7.64087 13.0479 7.56348 13.1406 7.50995L13.3106 7.40997C13.5103 7.29585 13.6857 7.14341 13.8265 6.96149C13.9673 6.77956 14.0708 6.57177 14.1312 6.34979C14.1915 6.12781 14.2075 5.89608 14.1783 5.66791C14.149 5.43973 14.0751 5.21952 13.9606 5.01996L13.6306 4.45001C13.3943 4.04185 13.0057 3.74412 12.5501 3.62225C12.0945 3.50038 11.6091 3.5643 11.2006 3.79999L11.0406 3.88995C10.9464 3.94437 10.8395 3.97308 10.7306 3.97308C10.6218 3.97308 10.5149 3.94437 10.4207 3.88995C10.3267 3.83691 10.2485 3.75991 10.1941 3.66681C10.1396 3.5737 10.1109 3.46779 10.1107 3.35992V3.17999C10.1107 2.71852 9.92732 2.27596 9.60101 1.94965C9.2747 1.62333 8.83208 1.44 8.3706 1.44H7.61065C7.15621 1.43999 6.72022 1.61984 6.39794 1.94025C6.07567 2.26065 5.89326 2.69553 5.89062 3.14996V3.25995C5.89184 3.37765 5.86204 3.49361 5.8042 3.59613C5.74635 3.69865 5.66253 3.78412 5.56115 3.84393C5.45977 3.90375 5.34439 3.93577 5.22668 3.93683C5.10897 3.93789 4.99306 3.9079 4.89062 3.84991L4.78064 3.77997C4.38215 3.55481 3.91097 3.49575 3.46923 3.61554C3.0275 3.73533 2.65079 4.02436 2.42065 4.41998L2.04065 5.07001C1.92717 5.26076 1.85356 5.47255 1.82434 5.69257C1.79512 5.91258 1.81085 6.13616 1.8706 6.34991C1.99525 6.77259 2.27829 7.13083 2.66064 7.34991H2.75061C2.85559 7.41389 2.94272 7.50341 3.0039 7.61005C3.06509 7.71668 3.09839 7.8371 3.10064 7.96002C3.0945 8.09844 3.05014 8.23237 2.97247 8.34711C2.8948 8.46184 2.78686 8.55279 2.66064 8.60992C2.27515 8.8394 1.99454 9.21045 1.87872 9.64386C1.76289 10.0773 1.82102 10.5388 2.04065 10.93L2.40063 11.55C2.63801 11.9574 3.02583 12.2554 3.48065 12.3799C3.70478 12.4403 3.93865 12.4555 4.1687 12.4246C4.39875 12.3937 4.62036 12.3174 4.82061 12.2L4.98065 12.1099C5.07512 12.0554 5.18228 12.0268 5.29138 12.0269C5.40047 12.0271 5.50764 12.056 5.60199 12.1108C5.69633 12.1656 5.77453 12.2442 5.82873 12.3389C5.88293 12.4336 5.91118 12.5409 5.91064 12.65V12.82C5.91064 13.2815 6.09397 13.724 6.42028 14.0504C6.7466 14.3767 7.18915 14.56 7.65063 14.56H8.39062C8.8521 14.56 9.29465 14.3767 9.62097 14.0504C9.94728 13.724 10.1306 13.2815 10.1306 12.82V12.65C10.1311 12.5408 10.1599 12.4336 10.2142 12.3389C10.2686 12.2443 10.3466 12.1654 10.4406 12.1099C10.536 12.0536 10.6448 12.024 10.7556 12.024C10.8664 12.024 10.9752 12.0536 11.0706 12.1099L11.2306 12.2C11.4314 12.3162 11.6534 12.3912 11.8835 12.4203C12.1136 12.4495 12.3472 12.4323 12.5706 12.3699C12.7934 12.3117 13.0022 12.2091 13.1843 12.0682C13.3665 11.9273 13.5182 11.751 13.6306 11.55L13.9606 10.9799C14.1657 10.5811 14.2127 10.1195 14.0922 9.68756C13.9717 9.25557 13.6926 8.88502 13.3106 8.64996ZM12.9106 10.46L12.5806 11.03C12.5452 11.0957 12.4969 11.1535 12.4384 11.1999C12.38 11.2463 12.3127 11.2804 12.2407 11.3C12.098 11.33 11.9492 11.3087 11.8206 11.2399L11.6606 11.15C11.3819 10.9855 11.0643 10.8987 10.7407 10.8987C10.417 10.8987 10.0993 10.9855 9.82061 11.15C9.5487 11.3127 9.32318 11.5425 9.16558 11.8174C9.00799 12.0924 8.92365 12.403 8.92065 12.7199V12.89C8.92065 13.0332 8.86372 13.1705 8.76245 13.2718C8.66118 13.3731 8.52383 13.43 8.38061 13.43H7.64062C7.4974 13.43 7.36005 13.3731 7.25878 13.2718C7.15752 13.1705 7.10064 13.0332 7.10064 12.89V12.7199C7.09959 12.4027 7.01605 12.0912 6.85827 11.816C6.70049 11.5407 6.47386 11.3112 6.20062 11.15C5.92259 10.9841 5.6044 10.8976 5.28064 10.9C4.96151 10.8988 4.64765 10.9816 4.3706 11.14L4.21063 11.2299C4.14701 11.2691 4.07597 11.2948 4.00195 11.3051C3.92793 11.3154 3.85256 11.3103 3.78064 11.29C3.70703 11.2711 3.63805 11.2374 3.57788 11.191C3.51771 11.1446 3.46757 11.0864 3.4306 11.02L3.07061 10.4C3.03897 10.3345 3.02089 10.2634 3.01739 10.1909C3.01389 10.1183 3.02508 10.0456 3.05029 9.97748C3.0755 9.90932 3.11423 9.84697 3.16412 9.79413C3.21401 9.74128 3.27403 9.69907 3.34063 9.66998C3.63665 9.50851 3.88494 9.27184 4.06048 8.98395C4.23603 8.69605 4.33264 8.36707 4.34063 8.02997C4.33507 7.68435 4.24001 7.3461 4.06475 7.04816C3.88949 6.75022 3.64001 6.50281 3.34063 6.33002C3.28362 6.29866 3.23374 6.2558 3.19415 6.20416C3.15456 6.15252 3.12613 6.09317 3.11065 6.02997C3.09202 5.96831 3.08683 5.90337 3.09545 5.83954C3.10408 5.77571 3.12631 5.71447 3.16064 5.65997L3.54065 5.00995C3.60991 4.88827 3.72447 4.79901 3.85937 4.76154C3.99427 4.72406 4.13852 4.74147 4.26062 4.81L4.3706 4.87994C4.67767 5.05632 5.0283 5.14239 5.38214 5.12823C5.73597 5.11408 6.07861 5.00033 6.3706 4.79999C6.62611 4.63092 6.83512 4.40039 6.97839 4.12958C7.12166 3.85876 7.1946 3.55629 7.19061 3.24994V3.13995C7.1906 3.07213 7.20415 3.00498 7.2304 2.94244C7.25666 2.87991 7.29508 2.82319 7.3435 2.7757C7.39192 2.7282 7.44935 2.69087 7.51239 2.66583C7.57542 2.6408 7.64282 2.62861 7.71063 2.62994H8.47064C8.61385 2.62994 8.7512 2.68688 8.85247 2.78815C8.95374 2.88942 9.01062 3.02677 9.01062 3.16998V3.34991C9.01095 3.67102 9.09623 3.98636 9.25781 4.26385C9.41939 4.54135 9.6515 4.7712 9.9306 4.92999C10.207 5.08504 10.5187 5.16644 10.8356 5.16644C11.1526 5.16644 11.4642 5.08504 11.7407 4.92999L11.9006 4.8399C12.0339 4.76612 12.1906 4.74681 12.3379 4.78595C12.4851 4.82509 12.6115 4.91975 12.6906 5.04999L13.0206 5.61993C13.0562 5.68295 13.079 5.75233 13.0876 5.82416C13.0963 5.89598 13.0907 5.96884 13.0712 6.03851C13.0517 6.10818 13.0187 6.17329 12.9739 6.23016C12.9292 6.28704 12.8737 6.33455 12.8106 6.36993L12.6406 6.46991C12.3664 6.62774 12.1387 6.85509 11.9803 7.12897C11.822 7.40284 11.7386 7.71361 11.7386 8.02997C11.7386 8.34633 11.822 8.6571 11.9803 8.93097C12.1387 9.20484 12.3664 9.43208 12.6406 9.5899L12.8106 9.69C12.8712 9.73603 12.9219 9.79362 12.9598 9.85956C12.9977 9.92549 13.022 9.99843 13.0314 10.0739C13.0407 10.1494 13.0348 10.226 13.0141 10.2991C12.9934 10.3723 12.9582 10.4406 12.9106 10.4999V10.46ZM8.01062 5.57001C7.5221 5.57001 7.04455 5.71486 6.63836 5.98627C6.23217 6.25767 5.91558 6.64345 5.72863 7.09479C5.54169 7.54612 5.49276 8.04266 5.58807 8.52179C5.68338 9.00092 5.91866 9.44112 6.26409 9.78656C6.60953 10.132 7.04961 10.3672 7.52874 10.4625C8.00788 10.5578 8.50453 10.5089 8.95587 10.322C9.4072 10.135 9.79298 9.81836 10.0644 9.41217C10.3358 9.00598 10.4806 8.5285 10.4806 8.03998C10.4574 7.39969 10.1872 6.79325 9.7268 6.34772C9.26636 5.90219 8.65132 5.65212 8.01062 5.64996V5.57001ZM8.01062 9.31C7.75943 9.31 7.5139 9.23544 7.30505 9.09589C7.0962 8.95634 6.9334 8.758 6.83728 8.52594C6.74115 8.29388 6.71601 8.03853 6.76501 7.79218C6.81401 7.54582 6.93499 7.31952 7.11261 7.14191C7.29022 6.96429 7.51652 6.84338 7.76287 6.79437C8.00923 6.74537 8.26458 6.77051 8.49664 6.86664C8.7287 6.96276 8.92704 7.12556 9.06659 7.33441C9.20613 7.54326 9.28064 7.7888 9.28064 8.03998C9.28462 8.20974 9.25478 8.37856 9.19287 8.53668C9.13095 8.6948 9.03818 8.83908 8.91998 8.961C8.80178 9.08292 8.66051 9.1801 8.50439 9.24689C8.34827 9.31367 8.18042 9.34863 8.01062 9.34991V9.31Z" fill="#CACBD0"/>
</svg>
