<svg width="16" height="16" viewBox="0 0 16 16" fill="none" xmlns="http://www.w3.org/2000/svg">
<path d="M6.99992 2.60002C5.04669 2.60002 3.38925 3.87315 2.81513 5.63643C2.71253 5.95152 2.37394 6.12378 2.05885 6.02119C1.74376 5.9186 1.57149 5.58 1.67409 5.26491C2.40432 3.02215 4.5119 1.40002 6.99992 1.40002H8.99992C12.0927 1.40002 14.5999 3.90723 14.5999 7.00002V9.00002C14.5999 12.0928 12.0927 14.6 8.99992 14.6H6.99992C4.45286 14.6 2.3044 12.9 1.62433 10.5741C1.53134 10.256 1.71379 9.9228 2.03184 9.8298C2.3499 9.73681 2.68312 9.91926 2.77611 10.2373C3.31065 12.0656 5.00023 13.4 6.99992 13.4H8.99992C11.43 13.4 13.3999 11.4301 13.3999 9.00002V7.00002C13.3999 4.56997 11.43 2.60002 8.99992 2.60002H6.99992Z" fill="#CACBD0"/>
<path d="M6.17397 5.07576C6.40828 4.84145 6.78818 4.84145 7.02249 5.07576L9.52249 7.57576C9.75681 7.81007 9.75681 8.18997 9.52249 8.42429L7.02249 10.9243C6.78818 11.1586 6.40828 11.1586 6.17397 10.9243C5.93965 10.69 5.93965 10.3101 6.17397 10.0758L7.6497 8.60002H1.9999C1.66853 8.60002 1.3999 8.3314 1.3999 8.00002C1.3999 7.66865 1.66853 7.40002 1.9999 7.40002H7.6497L6.17397 5.92429C5.93965 5.68997 5.93965 5.31007 6.17397 5.07576Z" fill="#CACBD0"/>
</svg>
