<svg width="18" height="18" viewBox="0 0 18 18" fill="none" xmlns="http://www.w3.org/2000/svg">
<path d="M13.4999 3.25C13.9141 3.25 14.2499 3.58579 14.2499 4V12.1893L15.4697 10.9695C15.7626 10.6767 16.2374 10.6767 16.5303 10.9695C16.8232 11.2624 16.8232 11.7373 16.5303 12.0302L14.0303 14.5302C13.8897 14.6709 13.6989 14.7499 13.5 14.7499C13.3011 14.7499 13.1103 14.6709 12.9697 14.5302L10.4697 12.0302C10.1768 11.7373 10.1768 11.2624 10.4697 10.9695C10.7626 10.6767 11.2374 10.6767 11.5303 10.9695L12.7499 12.1891V4C12.7499 3.58579 13.0857 3.25 13.4999 3.25Z" fill="#878A96"/>
<path d="M2 4.25C1.58579 4.25 1.25 4.58579 1.25 5C1.25 5.41421 1.58579 5.75 2 5.75H9C9.41421 5.75 9.75 5.41421 9.75 5C9.75 4.58579 9.41421 4.25 9 4.25H2Z" fill="#878A96"/>
<path d="M2 8.25C1.58579 8.25 1.25 8.58579 1.25 9C1.25 9.41421 1.58579 9.75 2 9.75H7C7.41421 9.75 7.75 9.41421 7.75 9C7.75 8.58579 7.41421 8.25 7 8.25H2Z" fill="#878A96"/>
<path d="M1.25 13C1.25 12.5858 1.58579 12.25 2 12.25H5C5.41421 12.25 5.75 12.5858 5.75 13C5.75 13.4142 5.41421 13.75 5 13.75H2C1.58579 13.75 1.25 13.4142 1.25 13Z" fill="#878A96"/>
</svg>
