<svg width="16" height="16" viewBox="0 0 16 16" fill="none" xmlns="http://www.w3.org/2000/svg">
<path d="M11.0499 9.00002C11.7402 9.00002 12.2999 8.44038 12.2999 7.75002C12.2999 7.05967 11.7402 6.50002 11.0499 6.50002C10.3595 6.50002 9.79989 7.05967 9.79989 7.75002C9.79989 8.44038 10.3595 9.00002 11.0499 9.00002Z" fill="#CACBD0"/>
<path fill-rule="evenodd" clip-rule="evenodd" d="M6.7499 3.90002C5.45203 3.90002 4.3999 4.95216 4.3999 6.25002C4.3999 7.54789 5.45203 8.60002 6.7499 8.60002C8.04777 8.60002 9.0999 7.54789 9.0999 6.25002C9.0999 4.95216 8.04777 3.90002 6.7499 3.90002ZM5.5999 6.25002C5.5999 5.6149 6.11477 5.10002 6.7499 5.10002C7.38503 5.10002 7.8999 5.6149 7.8999 6.25002C7.8999 6.88515 7.38503 7.40002 6.7499 7.40002C6.11477 7.40002 5.5999 6.88515 5.5999 6.25002Z" fill="#CACBD0"/>
<path fill-rule="evenodd" clip-rule="evenodd" d="M6.9999 1.40002C3.90711 1.40002 1.3999 3.90723 1.3999 7.00002V9.00002C1.3999 12.0928 3.90711 14.6 6.9999 14.6H8.9999C12.0927 14.6 14.5999 12.0928 14.5999 9.00002V7.00002C14.5999 3.90723 12.0927 1.40002 8.9999 1.40002H6.9999ZM2.5999 7.00002C2.5999 4.56997 4.56985 2.60002 6.9999 2.60002H8.9999C11.43 2.60002 13.3999 4.56997 13.3999 7.00002V9.00002C13.3999 10.2027 12.9174 11.2927 12.1353 12.0869C12.139 11.9427 12.0909 11.7967 11.9889 11.679C10.7797 10.2839 8.99265 9.40002 6.99989 9.40002C5.48354 9.40002 4.08564 9.91202 2.97122 10.7719C2.73246 10.2298 2.5999 9.63039 2.5999 9.00002V7.00002ZM3.60556 11.7999C4.4126 12.7772 5.63351 13.4 6.9999 13.4H8.9999C9.90131 13.4 10.7394 13.129 11.4371 12.6639C11.304 12.6419 11.1774 12.575 11.0821 12.465C10.0911 11.3217 8.63012 10.6 6.99989 10.6C5.7135 10.6 4.53323 11.0492 3.60556 11.7999Z" fill="#CACBD0"/>
</svg>
