<svg width="16" height="16" viewBox="0 0 16 16" fill="none" xmlns="http://www.w3.org/2000/svg">
<path fill-rule="evenodd" clip-rule="evenodd" d="M6.9999 1.40002C3.90711 1.40002 1.3999 3.90723 1.3999 7.00002V9.00002C1.3999 12.0928 3.90711 14.6 6.9999 14.6H8.9999C12.0927 14.6 14.5999 12.0928 14.5999 9.00002V7.00002C14.5999 3.90723 12.0927 1.40002 8.9999 1.40002H6.9999ZM6.6499 2.61374C4.38348 2.79211 2.5999 4.68778 2.5999 7.00002V9.00002C2.5999 11.4301 4.56985 13.4 6.9999 13.4H8.9999C9.68036 13.4 10.3247 13.2456 10.8999 12.9698V11.7267L9.58946 10.4978C9.46852 10.3844 9.3999 10.226 9.3999 10.0601V8.00056C8.67267 7.75136 8.1499 7.06174 8.1499 6.25002C8.1499 5.2283 8.97818 4.40002 9.9999 4.40002C11.0216 4.40002 11.8499 5.2283 11.8499 6.25002C11.8499 7.06174 11.3271 7.75136 10.5999 8.00056V9.80027L11.9103 11.0292C12.0313 11.1426 12.0999 11.3011 12.0999 11.4669V12.1225C12.9028 11.3254 13.3999 10.2208 13.3999 9.00002V7.00002C13.3999 4.56997 11.43 2.60002 8.9999 2.60002H7.8499V4.03331C7.8499 4.19912 7.78129 4.35753 7.66034 4.47096L6.3499 5.6999V7.49949C7.07713 7.74869 7.5999 8.43831 7.5999 9.25002C7.5999 10.2718 6.77163 11.1 5.7499 11.1C4.72818 11.1 3.8999 10.2718 3.8999 9.25002C3.8999 8.43831 4.42267 7.74869 5.1499 7.49949V5.44002C5.1499 5.27421 5.21852 5.1158 5.33946 5.00237L6.6499 3.77343V2.61374ZM5.7499 8.60002C5.39092 8.60002 5.0999 8.89104 5.0999 9.25002C5.0999 9.60901 5.39092 9.90002 5.7499 9.90002C6.10889 9.90002 6.3999 9.60901 6.3999 9.25002C6.3999 8.89104 6.10889 8.60002 5.7499 8.60002ZM9.9999 6.90002C9.64092 6.90002 9.3499 6.60901 9.3499 6.25002C9.3499 5.89104 9.64092 5.60002 9.9999 5.60002C10.3589 5.60002 10.6499 5.89104 10.6499 6.25002C10.6499 6.60901 10.3589 6.90002 9.9999 6.90002Z" fill="#CACBD0"/>
</svg>
