<svg width="16" height="16" viewBox="0 0 16 16" fill="none" xmlns="http://www.w3.org/2000/svg">
<path fill-rule="evenodd" clip-rule="evenodd" d="M1.3999 4.00002C1.3999 2.56408 2.56396 1.40002 3.9999 1.40002H11.9999C13.4358 1.40002 14.5999 2.56408 14.5999 4.00002V12C14.5999 13.436 13.4358 14.6 11.9999 14.6H3.9999C2.56396 14.6 1.3999 13.436 1.3999 12V4.00002ZM3.9999 2.60002C3.2267 2.60002 2.5999 3.22683 2.5999 4.00002V5.40002H13.3999V4.00002C13.3999 3.22683 12.7731 2.60002 11.9999 2.60002H3.9999ZM2.5999 12V6.60002H5.3999V13.4H3.9999C3.2267 13.4 2.5999 12.7732 2.5999 12ZM6.5999 13.4H11.9999C12.7731 13.4 13.3999 12.7732 13.3999 12V6.60002H6.5999V13.4Z" fill="#CACBD0"/>
</svg>
