<svg width="20" height="20" viewBox="0 0 20 20" fill="none" xmlns="http://www.w3.org/2000/svg">
<path fill-rule="evenodd" clip-rule="evenodd" d="M16.0474 15.4293C14.5805 13.737 12.4152 12.6666 9.99985 12.6666C7.62853 12.6666 5.49817 13.6984 4.0332 15.3374C5.14014 17.113 7.12902 18.0008 9.99985 18.0008C12.8707 18.0008 14.8865 17.1436 16.0474 15.4293Z" fill="#33363F"/>
<path d="M11.3333 2H8.66667C4.98477 2 2 4.98477 2 8.66667V11.3333C2 15.0152 4.98477 18 8.66667 18H11.3333C15.0152 18 18 15.0152 18 11.3333V8.66667C18 4.98477 15.0152 2 11.3333 2Z" stroke="#90929E" stroke-width="1.8"/>
<path d="M16.0474 15.4293C14.5805 13.737 12.4152 12.6666 9.99985 12.6666C7.62853 12.6666 5.49817 13.6984 4.0332 15.3374" stroke="#90929E" stroke-width="1.8" stroke-linecap="round"/>
<path d="M9.99984 10C11.2885 10 12.3332 8.95537 12.3332 7.66671C12.3332 6.37804 11.2885 5.33337 9.99984 5.33337C8.71117 5.33337 7.6665 6.37804 7.6665 7.66671C7.6665 8.95537 8.71117 10 9.99984 10Z" stroke="#90929E" stroke-width="1.8"/>
</svg>
