<svg width="16" height="16" viewBox="0 0 16 16" fill="none" xmlns="http://www.w3.org/2000/svg">
<path fill-rule="evenodd" clip-rule="evenodd" d="M2.43858 8.4178C2.33322 8.25387 2.24805 8.11178 2.18365 8.00002C2.24805 7.88827 2.33322 7.74618 2.43858 7.58225C2.71087 7.15861 3.11407 6.59531 3.63747 6.03434C4.69542 4.90044 6.17256 3.85002 7.9999 3.85002C9.82725 3.85002 11.3044 4.90044 12.3623 6.03434C12.8857 6.59531 13.2889 7.15861 13.5612 7.58225C13.6666 7.74617 13.7518 7.88827 13.8162 8.00002C13.7518 8.11178 13.6666 8.25387 13.5612 8.4178C13.2889 8.84144 12.8857 9.40473 12.3623 9.96571C11.3044 11.0996 9.82725 12.15 7.9999 12.15C6.17256 12.15 4.69542 11.0996 3.63747 9.96571C3.11407 9.40473 2.71087 8.84144 2.43858 8.4178ZM15.0369 7.7323C15.037 7.73252 15.0371 7.73272 14.4999 8.00002C15.0371 8.26732 15.037 8.26753 15.0369 8.26775L15.0366 8.26828L15.0359 8.26966L15.0339 8.27373L15.0271 8.28695C15.0215 8.29798 15.0135 8.31341 15.0032 8.33295C14.9827 8.37202 14.9528 8.42756 14.9138 8.49721C14.8359 8.63644 14.7211 8.83255 14.5707 9.06663C14.2705 9.53361 13.8243 10.1578 13.2397 10.7843C12.0818 12.0254 10.3089 13.35 7.9999 13.35C5.69088 13.35 3.91802 12.0254 2.76006 10.7843C2.17551 10.1578 1.72927 9.53361 1.42912 9.06663C1.27867 8.83255 1.16394 8.63644 1.086 8.49721C1.047 8.42756 1.01715 8.37202 0.996576 8.33295C0.986286 8.31341 0.97831 8.29798 0.972666 8.28695L0.965947 8.27373L0.963901 8.26966L0.963207 8.26828L0.962943 8.26775C0.962833 8.26753 0.962733 8.26732 1.4999 8.00002C0.962733 7.73272 0.962833 7.73252 0.962943 7.7323L0.963207 7.73177L0.963901 7.73039L0.965947 7.72632L0.972666 7.7131C0.97831 7.70207 0.986286 7.68664 0.996576 7.6671C1.01715 7.62803 1.047 7.57249 1.086 7.50284C1.16394 7.36361 1.27867 7.1675 1.42912 6.93342C1.72927 6.46644 2.17551 5.84223 2.76006 5.21571C3.91802 3.97461 5.69088 2.65002 7.9999 2.65002C10.3089 2.65002 12.0818 3.97461 13.2397 5.21571C13.8243 5.84223 14.2705 6.46644 14.5707 6.93342C14.7211 7.1675 14.8359 7.36361 14.9138 7.50284C14.9528 7.57249 14.9827 7.62803 15.0032 7.6671C15.0135 7.68664 15.0215 7.70207 15.0271 7.7131L15.0339 7.72632L15.0359 7.73039L15.0366 7.73177L15.0369 7.7323ZM14.4999 8.00002L15.0371 7.73272C15.1208 7.90108 15.1208 8.09897 15.0371 8.26732L14.4999 8.00002ZM0.962733 7.73272L1.4999 8.00002L0.962733 8.26732C0.878959 8.09897 0.878959 7.90108 0.962733 7.73272ZM6.8272 7.99954C6.8272 7.34443 7.35496 6.81829 7.99992 6.81829C8.64489 6.81829 9.17265 7.34443 9.17265 7.99954C9.17265 8.65464 8.64489 9.18079 7.99992 9.18079C7.35496 9.18079 6.8272 8.65464 6.8272 7.99954ZM7.99992 5.61829C6.68679 5.61829 5.6272 6.68712 5.6272 7.99954C5.6272 9.31195 6.68679 10.3808 7.99992 10.3808C9.31306 10.3808 10.3727 9.31195 10.3727 7.99954C10.3727 6.68712 9.31306 5.61829 7.99992 5.61829Z" fill="#CACBD0"/>
</svg>
