<svg width="16" height="16" viewBox="0 0 16 16" fill="none" xmlns="http://www.w3.org/2000/svg">
<path fill-rule="evenodd" clip-rule="evenodd" d="M8.00006 5.61829C6.68693 5.61829 5.62734 6.68712 5.62734 7.99954C5.62734 9.31195 6.68693 10.3808 8.00006 10.3808C9.3132 10.3808 10.3728 9.31195 10.3728 7.99954C10.3728 6.68712 9.3132 5.61829 8.00006 5.61829ZM6.82734 7.99954C6.82734 7.34443 7.35509 6.81829 8.00006 6.81829C8.64503 6.81829 9.17279 7.34443 9.17279 7.99954C9.17279 8.65464 8.64503 9.18079 8.00006 9.18079C7.35509 9.18079 6.82734 8.65464 6.82734 7.99954Z" fill="#CACBD0"/>
<path fill-rule="evenodd" clip-rule="evenodd" d="M15.037 7.7323C15.0371 7.73252 15.0372 7.73272 14.5 8.00002C15.0372 8.26732 15.0371 8.26753 15.037 8.26775L15.036 8.26966L15.034 8.27373L15.0273 8.28695C15.0216 8.29798 15.0137 8.31341 15.0034 8.33295C14.9828 8.37202 14.9529 8.42756 14.9139 8.49721C14.836 8.63644 14.7213 8.83255 14.5708 9.06663C14.2707 9.53361 13.8244 10.1578 13.2399 10.7843C12.0819 12.0254 10.3091 13.35 8.00004 13.35C5.69102 13.35 3.91816 12.0254 2.7602 10.7843C2.17564 10.1578 1.72941 9.53361 1.42926 9.06663C1.27881 8.83255 1.16408 8.63644 1.08614 8.49721C1.04714 8.42756 1.01729 8.37202 0.996715 8.33295C0.986425 8.31341 0.97845 8.29798 0.972805 8.28695L0.966086 8.27373L0.96404 8.26966L0.963347 8.26828C0.963237 8.26806 0.962872 8.26732 1.50004 8.00002C0.962872 7.73272 0.962973 7.73252 0.963082 7.7323L0.96404 7.73039L0.966086 7.72632L0.972805 7.7131C0.97845 7.70207 0.986425 7.68664 0.996715 7.6671C1.01729 7.62803 1.04714 7.57249 1.08614 7.50284C1.16408 7.36361 1.27881 7.1675 1.42926 6.93342C1.72941 6.46644 2.17564 5.84223 2.7602 5.21571C3.91816 3.97461 5.69102 2.65002 8.00004 2.65002C10.3091 2.65002 12.0819 3.97461 13.2399 5.21571C13.8244 5.84223 14.2707 6.46644 14.5708 6.93342C14.7213 7.1675 14.836 7.36361 14.9139 7.50284C14.9529 7.57249 14.9828 7.62803 15.0034 7.6671C15.0137 7.68664 15.0216 7.70207 15.0273 7.7131L15.034 7.72632L15.036 7.73039L15.037 7.7323ZM2.43872 8.4178C2.33336 8.25387 2.24819 8.11178 2.18379 8.00002C2.24819 7.88827 2.33336 7.74618 2.43872 7.58225C2.71101 7.15861 3.11421 6.59531 3.63761 6.03434C4.69556 4.90044 6.1727 3.85002 8.00004 3.85002C9.82739 3.85002 11.3045 4.90044 12.3625 6.03434C12.8859 6.59531 13.2891 7.15861 13.5614 7.58225C13.6667 7.74617 13.7519 7.88827 13.8163 8.00002C13.7519 8.11178 13.6667 8.25387 13.5614 8.4178C13.2891 8.84144 12.8859 9.40473 12.3625 9.96571C11.3045 11.0996 9.82739 12.15 8.00004 12.15C6.1727 12.15 4.69556 11.0996 3.63761 9.96571C3.11421 9.40473 2.71101 8.84144 2.43872 8.4178ZM14.5 8.00002L15.037 7.7323C15.1208 7.90066 15.1208 8.09939 15.037 8.26775L14.5 8.00002Z" fill="#CACBD0"/>
<path d="M0.963082 7.7323L1.50004 8.00002L0.962872 8.26732C0.879098 8.09897 0.879308 7.90066 0.963082 7.7323Z" fill="#CACBD0"/>
</svg>
